<svg width="694" height="507" fill="none" xmlns="http://www.w3.org/2000/svg"><path d="M558.789 56.76H135.873c-15.479 0-28.029 12.55-28.029 28.03v267.761c0 15.481 12.55 28.03 28.029 28.03h422.916c15.481 0 28.03-12.549 28.03-28.03V84.791c0-15.481-12.549-28.03-28.03-28.03Z" fill="url(#a)"/><path d="M139.897 56.76h415.55a31.706 31.706 0 0 1 22.423 9.289 31.697 31.697 0 0 1 9.292 22.422H108.187a31.709 31.709 0 0 1 31.71-31.71Z" fill="#5CA4E6"/><path d="M360.329 108.598h195.63c3.354 0 6.579 1.333 8.949 3.706a12.65 12.65 0 0 1 3.71 8.949v96.704c0 3.356-1.334 6.575-3.71 8.948a12.655 12.655 0 0 1-8.949 3.706h-195.63a12.655 12.655 0 0 1-12.655-12.654v-96.704a12.657 12.657 0 0 1 12.655-12.655Z" stroke="#5661AE" stroke-miterlimit="10" stroke-dasharray="11.93 11.93"/><path d="M503.448 248.498H307.817c-6.989 0-12.655 5.666-12.655 12.655v96.704c0 6.989 5.666 12.654 12.655 12.654h195.631c6.989 0 12.656-5.665 12.656-12.654v-96.704c0-6.989-5.667-12.655-12.656-12.655Zm-231.99 0H134.757c-5.912 0-10.705 4.793-10.705 10.706v100.602c0 5.913 4.793 10.705 10.705 10.705h136.701c5.912 0 10.705-4.792 10.705-10.705V259.204c0-5.913-4.793-10.706-10.705-10.706Z" fill="#fff"/><path d="M313.166 337.229s14.663-1.544 23.478 5.056c11.825 8.851 21.347 15.683 33.917-6.071 13.771-23.834 15.935-32.158 25.981-32.257 12.895-.125 17.928 34.244 41.704 36.673 23.775 2.429 39.941-1.458 39.941-1.458" stroke="#5661AE" stroke-width="10" stroke-miterlimit="10" stroke-linecap="round"/><path d="M313.166 268.635h34.165" stroke="#5661AE" stroke-width="16" stroke-miterlimit="10" stroke-linecap="round"/><path d="M313.166 284.579h70.605" stroke="#D4DCF4" stroke-width="16" stroke-miterlimit="10" stroke-linecap="round"/><path d="M137.163 79.787a5.419 5.419 0 1 0 0-10.837 5.419 5.419 0 0 0 0 10.837Zm18.364 0a5.419 5.419 0 1 0-.001-10.837 5.419 5.419 0 0 0 .001 10.837Zm17.839 0a5.419 5.419 0 1 0 0-10.837 5.419 5.419 0 0 0 0 10.837Z" fill="#fff"/><path d="M458.456 191.53c12.109 0 21.926-9.816 21.926-21.925 0-12.11-9.817-21.926-21.926-21.926-12.109 0-21.926 9.816-21.926 21.926 0 12.109 9.817 21.925 21.926 21.925Z" fill="#1C85E8"/><path d="M460.187 159.246a1.731 1.731 0 0 0-3.461 0v22.109a1.73 1.73 0 0 0 3.461 0v-22.109Z" fill="#fff"/><path d="M469.512 172.03a1.73 1.73 0 0 0 0-3.461h-22.109a1.73 1.73 0 1 0 0 3.461h22.109Z" fill="#fff"/><path d="M344.538 506.8c190.286 0 344.541-3.94 344.541-8.802 0-4.861-154.255-8.802-344.541-8.802C154.255 489.196 0 493.137 0 497.998c0 4.862 154.255 8.802 344.538 8.802Z" fill="#F5F8FF"/><path d="M646.707 325.126H405.633v170.302h241.074V325.126Z" fill="#5CA4E6"/><path d="M501.938 325.126h-96.305v170.302h96.305V325.126Z" fill="url(#b)"/><path d="m59.033 431.419-9.893 63.532-3.766-.587a4.849 4.849 0 0 1-4.047-5.538l8.401-53.948a4.852 4.852 0 0 1 5.539-4.046l3.766.587Z" fill="#5661AE"/><path d="m89.954 442.111-15.469-4.628-4.918 21.551 16.924 5.314 3.463-22.237Z" fill="#BC775C"/><path d="m79.31 462.093-2.86-.897 7.025-21.023 2.612.782-6.778 21.138Z" fill="#93523E"/><path d="M76.447 437.788s-6.061 10.531-2.721 22.552l-20.821 34.039c-1.81 1.322-4.56.538-6.088-.275a1.825 1.825 0 0 1-.772-.801 1.823 1.823 0 0 1-.166-1.099l8.98-57.67a3.717 3.717 0 0 1 4.175-3.115c3.862.524 9.739 1.37 12.05 1.964 3.573.917 5.458 2.216 5.362 4.405Z" fill="#1C85E8"/><path d="m69.573 467.57-3.057-4.875a1.28 1.28 0 0 0-2.368.647c-.007.258.065.511.204.728l3.816 5.924 1.405-2.424Zm-3.465 5.222-3.027-4.864a1.28 1.28 0 0 0-1.652-.469 1.277 1.277 0 0 0-.512 1.845l3.736 5.868 1.455-2.38Zm-3.592 5.872-2.972-4.829a1.287 1.287 0 0 0-1.045-.6 1.278 1.278 0 0 0-1.323 1.247c-.007.258.064.512.204.728l3.718 5.772 1.418-2.318Z" fill="#fff"/><path d="M229.093 486.765h64.297v3.812a4.843 4.843 0 0 1-1.42 3.429 4.838 4.838 0 0 1-3.429 1.421h-54.598a4.851 4.851 0 0 1-4.85-4.85v-3.812Z" fill="#5661AE"/><path d="m234.9 454.568-2.193 15.996 22.052 1.544 2.646-17.54H234.9Z" fill="#BC775C"/><path d="m257.177 456.083-.565 3.744-22.645 1.551.726-5.295h22.484Z" fill="#93523E"/><path d="M232.707 468.58s11.338 4.368 22.702-.781l36.837 15.335c1.585 1.585 1.234 4.423.665 6.058a1.831 1.831 0 0 1-1.733 1.219h-58.365a3.72 3.72 0 0 1-3.72-3.646c-.077-3.896-.145-9.833.086-12.209.357-3.672 1.35-5.734 3.528-5.976Z" fill="#1C85E8"/><path d="m263.192 470.788-4.347 3.771a1.272 1.272 0 0 0-.356.509 1.27 1.27 0 0 0 .147 1.196 1.286 1.286 0 0 0 1.902.222l5.266-4.682-2.612-1.016Zm5.693 2.621-4.34 3.74a1.271 1.271 0 0 0-.433 1.124 1.293 1.293 0 0 0 .692.987 1.28 1.28 0 0 0 1.433-.185l5.224-4.594-2.576-1.072Zm6.354 2.645-4.315 3.68a1.269 1.269 0 0 0-.356.508 1.27 1.27 0 0 0 .147 1.196 1.278 1.278 0 0 0 1.214.535 1.28 1.28 0 0 0 .688-.313l5.13-4.562-2.508-1.044Z" fill="#fff"/><path d="m197.028 244.922 13.326-26.236s-8.113 1.06-9.526-3.975c-1.414-5.036 38.339-9.541 38.339-9.541s-3.181 11.131-7.951 12.456l-13.119 38.427-21.069-11.131Z" fill="#BC775C"/><path d="m199.014 241.014 20.814 9.971-1.731 5.068-20.227-12.787 1.144-2.252Z" fill="#93523E"/><path d="m325.924 104.511-191.607 31.367a6.031 6.031 0 0 0-4.978 6.927l12.512 76.43a6.032 6.032 0 0 0 6.927 4.979l191.607-31.367a6.031 6.031 0 0 0 4.978-6.928l-12.511-76.43a6.033 6.033 0 0 0-6.928-4.978Z" fill="#FEBB94"/><path d="m228.012 152.433 77.87-12.748" stroke="#fff" stroke-width="16.521" stroke-miterlimit="10" stroke-linecap="round"/><path opacity=".7" d="m233.544 176.077 50.797-8.316" stroke="#fff" stroke-width="16.521" stroke-miterlimit="10" stroke-linecap="round"/><path d="M181.464 204.584c15.211 0 27.541-12.331 27.541-27.541s-12.33-27.54-27.541-27.54c-15.21 0-27.54 12.33-27.54 27.54 0 15.21 12.33 27.541 27.54 27.541Z" stroke="#EF6A77" stroke-width="16.521" stroke-miterlimit="10"/><path d="M208.643 172.594a27.545 27.545 0 0 1-12.667 27.857 27.544 27.544 0 0 1-40.3-13.742 27.538 27.538 0 0 1 21.339-36.844" stroke="#fff" stroke-width="16.521" stroke-miterlimit="10" stroke-linecap="round"/><path d="m190.439 383.274 7.948 89.96c0 19.284-19.676 21.478-25.975 19.205-8.884-3.206-94.934-25.112-94.934-25.112l9.119-27.931 66.044 9.18s-1.806-18.742-19.516-75.972l57.314 10.67Z" fill="#5661AE"/><path d="m139.025 392.427 53.55 15.036-3.011-36.124-56.44 1.265 5.901 19.823Z" fill="#465393"/><path d="M189.661 186.177s10.604 12.038 13.757 16.911c3.153 4.872 3.266 14.429-3.326 16.865-6.592 2.436-11.984 2.846-21.609 1.048-7.489-1.398-17.197-13.757-14.331-20.063 2.866-6.305 16.194-17.77 25.509-14.761Z" fill="#BC775C"/><path d="m191.668 219.854-1.577 20.35-23.072-5.015 10.318-19.203 14.331 3.868Z" fill="#BC775C"/><path d="M191.668 221.972h-6.273l5.366 9.582" fill="#93523E"/><path d="m164.439 233.899 3.441-3.334a3.702 3.702 0 0 1 3.431-.944l18.867 4.468a2.708 2.708 0 0 1 1.952 1.812l1.364 4.303-29.055-6.305Z" fill="url(#c)"/><path d="m134.558 336.786-3.378 16.361c-3.802 24.96 14.093 41.47 41.443 36.971 24.425-4.019 96.776-32.07 96.776-32.07l-2.883-44.396-60.824 10.035s-54.672-10.129-71.134 13.099Z" fill="#5661AE"/><path d="M271.047 352.477c10.867 0 19.676-8.81 19.676-19.676 0-10.867-8.809-19.676-19.676-19.676-10.867 0-19.676 8.809-19.676 19.676 0 10.866 8.809 19.676 19.676 19.676Z" fill="#5661AE"/><path d="M271.047 352.477c10.867 0 19.676-8.81 19.676-19.676 0-10.867-8.809-19.676-19.676-19.676-10.867 0-19.676 8.809-19.676 19.676 0 10.866 8.809 19.676 19.676 19.676Zm-92.336 140.998c10.867 0 19.675-8.809 19.675-19.676 0-10.867-8.808-19.676-19.675-19.676s-19.676 8.809-19.676 19.676c0 10.867 8.809 19.676 19.676 19.676Z" fill="#5661AE"/><path d="m289.763 338.487-27.66 117.596h-33.082l22.35-123.282 38.392 5.686Z" fill="#5661AE"/><path d="M205.692 323.687 132.84 346.36l1.718-9.574 71.134-13.099Z" fill="#465393"/><path d="m222.04 257.257 7.238 5.266 24.171-39.674s-3.218-12.995-3.439-15.207l7.864-1.122s6.37-12.005 8.186-14.38c1.815-2.374 3.911-1.955 5.028 0 0 0 3.492.559 4.051 5.308 0 0 3.073.699 4.33 6.844 0 0 2.654 2.794 2.095 5.867-.558 3.073-7.542 15.117-8.66 16.359a30.2 30.2 0 0 0-2.374 3.197l-23.28 55.784s-5.688 12.201-19.019 7.574l-16.527-7.66c-7.586-4.915 10.336-28.156 10.336-28.156Z" fill="#BC775C"/><path d="M234.223 294.515c7.684 0 13.913-6.229 13.913-13.913 0-7.685-6.229-13.914-13.913-13.914-7.685 0-13.914 6.229-13.914 13.914 0 7.684 6.229 13.913 13.914 13.913Z" fill="#BC775C"/><path d="M175.904 196.209s13.614-4.586 16.337-14.188c2.723-9.601-3.009-14.617-10.461-9.744 0 0-5.303-8.456-14.331-2.58-9.029 5.876-7.309 19.777-7.022 22.499 0 0-10.175 7.166-5.302 18.487 4.872 11.321 18.242 14.044 18.242 14.044a20.226 20.226 0 0 0 3.11-7.022s-7.368-5.589-3.11-11.034c4.256-5.447 9.129 3.295 9.129 3.295s3.726-12.324-6.592-13.757Z" fill="#465393"/><path d="M164.439 233.899s-9.452 4.699-11.592 9.76c-1.979 4.676-15.74 66.097-19.954 90.822a3.637 3.637 0 0 0 1.071 3.24 3.629 3.629 0 0 0 3.284.923l68.443-14.957s-3.347-35.972-2.174-46.529c1.173-10.556-10.024-36.954-10.024-36.954l-29.054-6.305Z" fill="url(#d)"/><path d="m203.275 282.136-17.255-10.255 17.954 29.536-.699-19.281Z" fill="#96BAFD"/><path d="m229.278 262.522 5.025 3.503 4.863-19.732-9.888 16.229Z" fill="#93523E"/><path d="M193.494 240.204s27.463 15.014 30.798 17.476a2.25 2.25 0 0 1 .66 2.854l-12.614 24.219a2.244 2.244 0 0 1-1.382 1.127 2.264 2.264 0 0 1-1.769-.231l-32.011-19.024s-1.703-25.322 16.318-26.421Z" fill="url(#e)"/><path d="M189.99 204.235c.658-.491.584-1.704-.166-2.708-.751-1.005-1.892-1.421-2.55-.929-.659.491-.583 1.704.166 2.708.75 1.004 1.892 1.421 2.55.929Zm9.025-6.829c.658-.491.583-1.704-.167-2.708-.75-1.005-1.892-1.421-2.55-.93-.658.492-.583 1.705.167 2.709s1.891 1.421 2.55.929Z" fill="#080B09"/><path d="M195.361 199.277s-.156 2.97 1.664 2.188c1.712-.806 3.176-.251 2.103 2.004" stroke="#93523E" stroke-width="1.209" stroke-linecap="round" stroke-linejoin="round"/><path d="M199.729 205.589a347.722 347.722 0 0 0-4.465 2.458.506.506 0 0 0-.266.462.517.517 0 0 0 .288.45c1.913.827 6.01 2.03 5.151-2.984a.467.467 0 0 0-.476-.457.464.464 0 0 0-.232.071Z" fill="#fff"/><path d="m182.228 201.266.192.157a1.37 1.37 0 0 0 1.933-.02l4.254-4.548a1.202 1.202 0 0 0 .081-1.626 1.312 1.312 0 0 0-1.484-.444 1.314 1.314 0 0 0-.467.289l-4.445 4.391a1.25 1.25 0 0 0-.064 1.801Zm15.461-12.904-5.851 2.195a1.298 1.298 0 0 0-.751.765 1.307 1.307 0 0 0 .074 1.071 1.209 1.209 0 0 0 1.511.608l5.912-1.956a1.37 1.37 0 0 0 .828-1.746l-.062-.24a1.25 1.25 0 0 0-1.661-.697Z" fill="#080B09"/><path d="m646.707 88.47-50.57 39.329H694l-47.293-39.328Z" fill="#FEBB94"/><path d="M486.593 290.447s-18.545-16.188-33.622-2.431C437.893 301.772 375.6 396.239 375.6 396.239l18.841 13.029 70.662-79.466 12.3 19.798 9.19-59.153Z" fill="#FCBA9F"/><path fill-rule="evenodd" clip-rule="evenodd" d="M473.976 471.203c7.767-5.676 15.774-11.527 24.205-13.417a1.353 1.353 0 0 1 1.103.234 1.338 1.338 0 0 1 .536.992l.924 15.643a1.335 1.335 0 0 1-1.073 1.388l-57.756 11.415c-4.258.842-6.989-1.01-8.299-4.298a.636.636 0 0 1 .143-.669.64.64 0 0 1 .669-.145 30.937 30.937 0 0 0 23.337-.815c5.328-2.375 10.709-6.308 16.211-10.328Z" fill="#5661AE"/><path fill-rule="evenodd" clip-rule="evenodd" d="M491.7 419.955s1.093 24.688 1.67 27.2a29.107 29.107 0 0 0 1.486 4.014c.99 2.359 2.093 4.989 2.194 6.9-8.017 2.135-15.654 7.715-23.074 13.136-5.501 4.02-10.882 7.951-16.21 10.326a30.958 30.958 0 0 1-22.271 1.189c-1.005-4.268 1.91-8.992 9.264-11.12 13.181-3.815 20.384-6.233 24.979-17.257 3.266-7.834-2.204-35.108-2.204-35.108l24.166.72Z" fill="#FFCCB3"/><path fill-rule="evenodd" clip-rule="evenodd" d="M470.316 450.175c2.592-.159 12.89-.837 22.749-2.126 1.916-.25 3.626 3.348 2.807 5.637a32.764 32.764 0 0 0-1.196 5.119 49.726 49.726 0 0 0-9.21 4.492c.597-4.078-1.891-5.884-5.587-5.698-2.92.147-9.514 2.001-12.915 3.008a1.021 1.021 0 0 1-1.221-1.393l3.702-8.43a1.012 1.012 0 0 1 .871-.609Zm-27.271 34c6.71.526 10.768-1.219 10.768-1.219l-2.7-13.659-10.498 2.583 2.43 12.295Z" fill="#fff"/><path fill-rule="evenodd" clip-rule="evenodd" d="M358.91 421.889c9.594.715 19.482 1.452 27.126 5.48a1.345 1.345 0 0 1 .454 1.997l-9.439 12.507a1.335 1.335 0 0 1-1.717.361l-51.371-28.757c-3.788-2.121-4.667-5.302-3.532-8.655a.622.622 0 0 1 .211-.287.628.628 0 0 1 .935.195 30.936 30.936 0 0 0 18.295 14.511c5.596 1.646 12.243 2.142 19.038 2.648Z" fill="#5661AE"/><path fill-rule="evenodd" clip-rule="evenodd" d="m405.633 394.366-16.365 21.79a29.16 29.16 0 0 0-1.471 4.02c-.776 2.439-1.642 5.155-2.804 6.675-7.488-3.572-16.921-4.276-26.084-4.96-6.794-.507-13.44-1.003-19.036-2.65a30.96 30.96 0 0 1-17.726-13.535c2.003-3.9 7.286-5.607 14.264-2.459 12.507 5.643 19.559 8.472 30.205 3.059a18.124 18.124 0 0 0 4.551-3.805l16.535-24.352 17.931 16.217Z" fill="#FCBA9F"/><path fill-rule="evenodd" clip-rule="evenodd" d="M369.758 403.508c2.077 1.559 10.356 7.719 18.697 13.13 1.621 1.052.59 4.901-1.517 6.113a32.485 32.485 0 0 0-4.23 3.121 49.755 49.755 0 0 0-9.924-2.552c3.098-2.718 2.375-5.706-.56-7.961-2.317-1.781-8.54-4.645-11.782-6.084a1.022 1.022 0 0 1-.026-1.852l8.284-4.017c.168-.082.357-.116.543-.099.187.019.365.088.515.201Zm-42.807 8.201c4.768 4.751 8.988 6.054 8.988 6.054l6.802-12.15-9.668-4.84-6.122 10.936Z" fill="#fff"/><path d="m512.023 278.701-48.897 8.687 9.624 38.706h31.321s14.889-32.001 7.952-47.393Z" fill="#FFCCB3"/><path d="M469.393 325.715c10.867 0 19.676-8.808 19.676-19.675s-8.809-19.676-19.676-19.676c-10.867 0-19.676 8.809-19.676 19.676 0 10.867 8.809 19.675 19.676 19.675Z" fill="#FFCCB3"/><path d="m449.961 309.14 19.689 123.279 22.709.948-2.652-121.862-39.746-2.365Z" fill="#FFCCB3"/><path d="M480.805 282.092s7.535 2.321 10.646 14.612c3.111 12.29-.284 29.39-.284 29.39h4.846s17.278-20.29 4.566-46.149l-19.774 2.147Z" fill="#FF967C"/><path d="m528.348 176.669-6.154 2.953a17.78 17.78 0 0 0-9.563 11.74l-13.913 55.981-31.366 14.997 7.151 11.358 59.305-2.103-5.46-94.926Z" fill="#5661AE"/><path d="M519.485 196.821s-10.8 15.173-5.574 29.624c5.226 14.452 3.093 17.131 1.786 29.934s2.961 9.826 2.961 9.826l15.15-7.146s6.319-60.561-14.323-62.238Z" fill="#465393"/><path d="M583.024 266.505s5.99 29.303-1.858 41.549c-9.933 15.5-22.08 17.874-31.061 18.04h-58.937s-.109-36.77-29.145-43.052c0 0 95.561-26.614 121.001-16.537Z" fill="#1F2D49"/><path d="m584.346 275.038-62.462 2.056.664-4.363 12.173-1.407h49.534l.091 3.714Z" fill="#0D1B33"/><path d="M503.562 261.308s-7.642 2.22-11.074 3.23c-3.432 1.009-10.219 3.433-10.219 3.433l4.969 7.067 22.522-1.34-6.198-12.39Z" fill="#FFCCB3"/><path d="M540.587 171.443s-12.824 5.075-14.783 6.642c-1.958 1.567-3.817 14.352-7.147 20.423-3.329 6.071-8.199 17.276-1.086 27.568 7.114 10.293 6.358 18.466 6.358 18.466l-1.514 25.818 59.34 1.805a3.809 3.809 0 0 0 3.917-4.156c-.679-7.528-1.825-18.774-2.071-30.761-.331-16.244-.577-70.524-.577-70.524l-26.709-.838c-5.375.928-15.728 5.557-15.728 5.557Z" fill="#5661AE"/><path d="M583.024 195.543c7.958 0 14.407-6.451 14.407-14.409 0-7.958-6.449-14.41-14.407-14.41s-14.407 6.452-14.407 14.41 6.449 14.409 14.407 14.409Z" fill="#5661AE"/><path d="M584.967 262.055s-1.23 4.505-14.407 9.77c0 0-30.892-.672-46.24-.349-15.348.323 1.645-3.726 10.213-7.997 8.567-4.272 49.463-16.136 49.463-16.136l.971 14.712Zm-12.452-73.142s-8.936 8.145-9.46 14.189c-.531 6.044-1.742 22.896-13.222 24.577-14.077 2.06-17.761 4.066-11.234 5.643 6.52 1.576 21.328-.979 21.328 5.781 0 4.809 5.75 8.408 8.644 5.781 2.888-2.628 25.914-42.57 3.944-55.971Z" fill="#465393"/><path d="M597.276 183.242c-1.211 5.782-12.736 66.699-12.736 66.699s-1.515 9.113-10.419 11.367l-62.098 15.786-10.926-16.39 56.319-19.261 11.202-60.309s30.277-5.606 28.658 2.108Z" fill="#5661AE"/><path d="m539.144 160.225.589 19.99s-.156 3.449 4.027 2.984c4.19-.465 12.614-3.595 14.938-7.626 2.325-4.031.855-5.414.855-5.414l-12.775-24.903-7.634 14.969Z" fill="#FFCCB3"/><path d="m539.144 162.548 5.231-6.203-4.785 19.082-.446-12.879Z" fill="#FF967C"/><path d="M543.805 110.95a20.725 20.725 0 0 1 2.402-10.989c2.979-5.379 9.156-12.819 18.545-9.614 9.382 3.205 16.252 10.416 12.704 20.603-3.548 10.187-13.403 13.446-18.428 12.361-5.025-1.085-15.223-12.361-15.223-12.361Z" fill="#080B09"/><path d="M540.781 112.366a5.142 5.142 0 0 1 5.4-2.423c3.717.684 7.622 3.617 10.95 7.135 3.321 3.518 3.211 6.072 1.703 7.629-1.509 1.558-18.053-12.341-18.053-12.341Z" fill="#FEBB94"/><path d="m458.457 214.359 23.811 65.968h47.875a7.596 7.596 0 0 0-7.595-7.596h-34.635l-20.561-58.372h-8.895Z" fill="#fff"/><path d="M458.456 214.359h-64.233l24.841 65.968h63.204l-23.812-65.968Z" fill="#D4DCF4"/><path d="M438.246 255.13a5.793 5.793 0 1 0-.001-11.585 5.793 5.793 0 0 0 .001 11.585Z" fill="#fff"/><path d="M513.143 135.644s1.981 19.134 11.29 27.846c6.073 5.681 11.641 4.226 19.942-7.145 7.608-10.426 8.275-15.496 8.275-15.496l-8.042-18.099s-32.411-4.612-31.465 12.894Z" fill="#FFCCB3"/><path d="M516.438 131.898s4.581 7.291 12.967 7.409a13.25 13.25 0 0 0 6.087 2.793 13.21 13.21 0 0 0 6.675-.548s-3.341-5.075 0-6.853c5.685-3.02 7.641 7.05 4.61 10.557-2.059 2.383.117 5.158 1.652 7.639 1.541 2.482 6.501 8.627 6.501 8.627s-.473-3.546 1.774-6.145c2.247-2.599 9.524-29.213-4.002-39.003s-27.766-1.958-30.436 0c0 0-14.214 2.482-14.24 17.265-.021 12.638 8.973 15.645 8.973 15.645l-2.684-10.201s1.66.177 2.123-7.185Z" fill="#080B09"/><path d="M531.555 155.466s1.049 3.28-2.512 4.803c-2.407.791-4.088-1.565-4.088-1.565l6.6-3.238Z" fill="#E56441"/><path d="M519.083 150.656c.741-.182 1.123-1.216.853-2.307-.269-1.092-1.088-1.828-1.828-1.646-.741.184-1.123 1.216-.854 2.308.27 1.092 1.089 1.828 1.829 1.645Zm10.982-2.545c.738-.183 1.12-1.215.855-2.307-.272-1.092-1.088-1.829-1.832-1.645-.74.182-1.122 1.216-.852 2.307.269 1.091 1.091 1.828 1.829 1.645Zm-15.242-3.34 5.589-1.283a.405.405 0 0 0 .275-.455 1.305 1.305 0 0 0-1.22-.841c-.176 0-.349.037-.511.106l-4.382 1.856c-.365.09-.207.729.249.617Zm18.765-5.002-7.279 2.28a1.666 1.666 0 0 1 1.442-2.001l5.817-.758c.182-.045.292.411.02.479Z" fill="#080B09"/><path d="m523.003 147.006-.789 5.893 2.081 1.005" stroke="#E56441" stroke-width=".947" stroke-linecap="round"/><path d="M646.706 88.47V0" stroke="#5661AE" stroke-miterlimit="10"/><defs><linearGradient id="a" x1="335.407" y1="55.992" x2="386.05" y2="746.914" gradientUnits="userSpaceOnUse"><stop stop-color="#fff"/><stop offset="1" stop-color="#94B9FF"/></linearGradient><linearGradient id="b" x1="451.388" y1="324.721" x2="518.944" y2="677.087" gradientUnits="userSpaceOnUse"><stop stop-color="#fff"/><stop offset="1" stop-color="#94B9FF"/></linearGradient><linearGradient id="c" x1="178.243" y1="229.496" x2="179.155" y2="252.376" gradientUnits="userSpaceOnUse"><stop stop-color="#fff"/><stop offset="1" stop-color="#94B9FF"/></linearGradient><linearGradient id="d" x1="167.453" y1="233.649" x2="201.701" y2="453.179" gradientUnits="userSpaceOnUse"><stop stop-color="#fff"/><stop offset="1" stop-color="#94B9FF"/></linearGradient><linearGradient id="e" x1="199.973" y1="240.095" x2="209.998" y2="337.225" gradientUnits="userSpaceOnUse"><stop stop-color="#fff"/><stop offset="1" stop-color="#94B9FF"/></linearGradient></defs></svg>