<svg width="599" height="566" fill="none" xmlns="http://www.w3.org/2000/svg"><path d="M304.614 489.278c125.271 0 226.825-2.988 226.825-6.673 0-3.686-101.554-6.673-226.825-6.673-125.272 0-226.824 2.987-226.824 6.673 0 3.685 101.552 6.673 226.824 6.673Z" fill="#F5F8FF"/><path d="M335.609 479.906H181.603c-12.492 0-20.901-10.127-18.783-22.619l62.025-365.799c2.118-12.492 13.962-22.619 26.454-22.619h154.006c12.491 0 20.901 10.127 18.783 22.62l-62.026 365.798c-2.118 12.492-13.962 22.619-26.453 22.619Z" fill="#5CA4E6"/><path d="M316.374 479.906H162.368c-12.491 0-20.901-10.127-18.783-22.619l62.026-365.799c2.118-12.492 13.961-22.619 26.454-22.619H386.07c12.492 0 20.902 10.127 18.784 22.62l-62.026 365.798c-2.118 12.492-13.962 22.619-26.454 22.619Z" fill="#D1E8F7"/><path d="M317.26 467.676H165.63c-6.486 0-10.852-5.258-9.752-11.744l61.566-363.089c1.1-6.486 7.249-11.744 13.736-11.744h151.629c6.486 0 10.853 5.258 9.753 11.744l-61.566 363.089c-1.1 6.486-7.25 11.744-13.736 11.744Z" fill="#fff"/><path d="M331.611 203.435H186.628l15.111-83.478c.99-5.09 5.918-9.216 11.008-9.216h136.892c5.09 0 8.413 4.126 7.423 9.216l-14.443 74.263c-.99 5.089-5.918 9.215-11.008 9.215Z" fill="url(#a)"/><path d="M319.926 192.694H102.877c-5.09 0-8.413-4.126-7.423-9.216l14.443-74.263c.99-5.09 5.918-9.216 11.008-9.216h217.049c5.089 0 8.413 4.126 7.423 9.216l-14.443 74.263c-.99 5.09-5.919 9.216-11.008 9.216ZM306.077 458.21l-134.619.639c-5.09 0-8.413-4.126-7.423-9.216l14.443-74.262c.99-5.09 5.918-9.217 11.008-9.217l134.619-.639c5.09 0 8.413 4.127 7.423 9.216l-14.443 74.263c-.99 5.09-5.918 9.216-11.008 9.216Z" fill="#FEBB94"/><path d="M186.264 435.721c3.83-29.959 32.296-54.247 63.581-54.247 31.285 0 53.541 24.288 49.71 54.247" stroke="#FF967C" stroke-width="16.521" stroke-miterlimit="10" stroke-linecap="round"/><path d="M186.264 435.721c3.83-29.959 32.296-54.247 63.581-54.247 15.484 0 28.756 5.949 37.749 15.592" stroke="#fff" stroke-width="16.521" stroke-miterlimit="10" stroke-linecap="round"/><path d="M289.979 355.016h-96.391c-5.145 0-8.622-4.171-7.766-9.316l20.357-122.45c.855-5.144 5.719-9.315 10.864-9.315h96.39c5.145 0 8.622 4.171 7.767 9.315L300.842 345.7c-.855 5.145-5.718 9.316-10.863 9.316Z" fill="url(#b)"/><path d="M223.271 278.687h-13.142a3.192 3.192 0 0 0-1.965.765 3.19 3.19 0 0 0-1.056 1.826l-7.138 42.934a2.135 2.135 0 0 0 2.16 2.591h13.142a3.186 3.186 0 0 0 3.022-2.591l7.137-42.934a2.13 2.13 0 0 0-.447-1.823 2.133 2.133 0 0 0-1.713-.768Zm23.978 14.691h-13.142a3.183 3.183 0 0 0-3.022 2.59l-4.696 28.244a2.15 2.15 0 0 0 .013.964 2.154 2.154 0 0 0 1.202 1.441c.297.133.62.197.946.186h13.142a3.18 3.18 0 0 0 3.021-2.591l4.696-28.244a2.13 2.13 0 0 0-.447-1.823 2.142 2.142 0 0 0-1.713-.767Zm31.742-41.331h-13.142a3.185 3.185 0 0 0-3.021 2.59l-11.567 69.575a2.135 2.135 0 0 0 1.214 2.405c.297.133.621.197.945.186h13.143a3.18 3.18 0 0 0 3.021-2.591l11.567-69.575a2.13 2.13 0 0 0-.447-1.823 2.133 2.133 0 0 0-1.713-.767Zm22.616 18.035h-13.142a3.18 3.18 0 0 0-3.021 2.59l-8.569 51.54a2.135 2.135 0 0 0 1.214 2.405c.298.133.621.197.946.186h13.142a3.19 3.19 0 0 0 3.022-2.591l8.568-51.54a2.13 2.13 0 0 0-.447-1.823 2.142 2.142 0 0 0-1.713-.767Z" fill="#fff"/><path d="M215.8 228.999h35.582m-37.591 12.082h17.791" stroke="#fff" stroke-width="10" stroke-miterlimit="10" stroke-linecap="round"/><path opacity=".6" d="M203.805 335.552h6.882m19.54 0h6.881m17.988 0h6.882m18.732 0h6.882" stroke="#fff" stroke-width="6" stroke-miterlimit="10" stroke-linecap="round"/><path d="M416.416 355.016h-96.39c-5.145 0-8.622-4.171-7.767-9.316l20.358-122.45c.855-5.144 5.719-9.315 10.864-9.315h96.39c5.145 0 8.622 4.171 7.766 9.315L427.28 345.7c-.855 5.145-5.719 9.316-10.864 9.316Z" fill="url(#c)"/><path d="M347.211 297.147h-13.143a3.182 3.182 0 0 0-3.021 2.59l-4.641 24.475a2.145 2.145 0 0 0 .447 1.823 2.142 2.142 0 0 0 1.713.768h13.142a3.188 3.188 0 0 0 3.022-2.591l4.641-24.475a2.145 2.145 0 0 0-.448-1.822 2.132 2.132 0 0 0-1.712-.768Zm31.438-37.899h-13.142a3.18 3.18 0 0 0-3.021 2.59l-9.659 62.374a2.13 2.13 0 0 0 .447 1.823 2.133 2.133 0 0 0 1.713.767h13.142a3.185 3.185 0 0 0 3.021-2.59l9.659-62.374a2.145 2.145 0 0 0-.446-1.823 2.137 2.137 0 0 0-1.714-.767Zm22.43 17.809h-13.142a3.18 3.18 0 0 0-3.021 2.59l-7.219 44.565a2.145 2.145 0 0 0 .448 1.823 2.138 2.138 0 0 0 1.712.768h13.142a3.184 3.184 0 0 0 3.022-2.591l7.218-44.565a2.145 2.145 0 0 0-.446-1.823 2.148 2.148 0 0 0-1.714-.767Zm26.964-6.975h-13.142a3.18 3.18 0 0 0-3.022 2.59l-8.568 51.54a2.135 2.135 0 0 0 2.16 2.591h13.142a3.186 3.186 0 0 0 3.021-2.591l8.568-51.54a2.13 2.13 0 0 0-.446-1.823 2.142 2.142 0 0 0-1.713-.767Z" fill="#fff"/><path d="M342.237 228.999h35.582m-37.592 12.082h17.791" stroke="#fff" stroke-width="10" stroke-miterlimit="10" stroke-linecap="round"/><path opacity=".6" d="M330.242 335.552h6.882m19.538 0h6.881m17.99 0h6.882m18.732 0h6.882" stroke="#fff" stroke-width="6" stroke-miterlimit="10" stroke-linecap="round"/><path d="m7.271 492.63 27.37 57.259-3.394 1.623a4.785 4.785 0 0 1-6.383-2.254L1.62 500.637a4.79 4.79 0 0 1 2.255-6.384l3.395-1.623Z" fill="#71C8EA"/><path d="m37.07 479.701-18.89 7.809 10.597 14.986 16.746-5.11-8.454-17.685Z" fill="#FFCCB3"/><path d="M25.004 488.108s7.375 11.39 8.488 17.755c1.112 6.365 4.922 38.56 3.897 41.462-.737 2.086-3.414 2.981-5.112 3.17a1.804 1.804 0 0 1-1.823-1.023L5.608 497.495a3.668 3.668 0 0 1 1.663-4.864c3.437-1.727 8.695-4.315 10.91-5.121 3.421-1.246 5.68-1.238 6.823.598Z" fill="#5661AE"/><path d="m158.724 515.357-25.669 47.384a4.787 4.787 0 0 1-6.489 1.929l-3.309-1.792 30.23-55.802 3.308 1.792a4.784 4.784 0 0 1 1.929 6.489Z" fill="#71C8EA"/><path d="m124.38 492.657 18.471 8.753-11.341 14.431-16.467-5.949 9.337-17.235Z" fill="#FFCCB3"/><path d="M136.006 501.662s-7.941 11.003-9.374 17.304c-1.432 6.3-6.864 38.261-5.987 41.212.63 2.121 3.258 3.15 4.945 3.424a1.806 1.806 0 0 0 1.872-.93l27.442-50.654a3.674 3.674 0 0 0-1.415-4.942c-3.346-1.899-8.467-4.75-10.637-5.666-3.355-1.417-5.611-1.523-6.846.252Z" fill="#5661AE"/><path d="M180.027 425.158s7.071 35.115 1.584 41.995l-139.83 35.805-11.924-22.335 81.655-37.053 16.353-22.414 52.162 4.002Z" fill="#D1E8F7"/><path d="m144.643 450.214-30.851 10.319-14.397 6.036 18.721 16.843-16.737 3.781-45.652-36.979h88.916ZM38.62 477.694l.948 3.297 21.68 16.922 20.363-4.969s-39.284-18.696-42.992-15.25Z" fill="#5CA4E6"/><path d="M77.865 423.109s-39.539-2.145-59.137-.422c-12.62 1.109-17.168 33.402-7.098 39.277l108.079 55.338 12.736-23.014-69.72-47.193 49.879-7.017-34.739-16.969Z" fill="#D1E8F7"/><path d="M22.052 464.713c11.676 0 21.142-9.466 21.142-21.143 0-11.677-9.466-21.143-21.143-21.143-11.677 0-21.143 9.466-21.143 21.143 0 11.677 9.466 21.143 21.143 21.143Zm156.046 2.731c11.677 0 21.143-9.466 21.143-21.143 0-11.677-9.466-21.143-21.143-21.143-11.677 0-21.143 9.466-21.143 21.143 0 11.677 9.466 21.143 21.143 21.143Z" fill="#D1E8F7"/><path d="M120.18 346.53c-2.227-10.996 3.011-10.713 4.755-12.461 0 0 6.539-5.392 11.522-.366 5.275 5.318 35.511 46.624 35.511 46.624l-18.919 17.4-3.556-4.243-9.211-10.987-9.853-11.742-1.224-1.336-13.291-15.054s5.526-2.046 4.266-7.835Z" fill="#5661AE"/><path d="M130.672 357.573c7.614-2.55 11.719-10.79 9.169-18.404-2.55-7.614-10.79-11.719-18.404-9.169-7.614 2.551-11.719 10.79-9.168 18.404 2.55 7.614 10.789 11.719 18.403 9.169Z" fill="#5661AE"/><path d="M129.38 369.36c-.381-2.298-1.144-6.895-1.966-11.084L123.05 338s11.722 17.326 17.124 29.395c3.999 9.044 8.639 18.262 9.407 26.059l-9.211-10.986-9.853-11.741-1.137-1.367Z" fill="#465393"/><path d="M190.864 333.823c4.496-8.199 2.336-9.591 4.248-14.256 1.884-4.553-1.461-15.838 1.741-14.299 3.202 1.539 4.194 5.628 4.194 5.628 2.19-3.875 4.207-11.003 9.45-11.819 5.244-.816 5.708.834 8.679 3.273 7.907 6.579-2.175 16.465-3.858 20.229-1.083 2.361-9.038 9.555-9.919 11.127l-4.004 5.809-10.531-5.692Z" fill="#FFCCB3"/><path d="m206.312 311.405 6.389-11.797-6.389 11.797Z" fill="#E56441"/><path d="m206.312 311.405 6.389-11.797" stroke="#E56441" stroke-width=".947" stroke-linecap="round"/><path d="m210.497 313.315 6.964-10.987-6.964 10.987Z" fill="#E56441"/><path d="m210.497 313.315 6.964-10.987" stroke="#E56441" stroke-width=".947" stroke-linecap="round"/><path d="m215.471 315.427 3.979-6.654-3.979 6.654Z" fill="#E56441"/><path d="m215.471 315.427 3.979-6.654" stroke="#E56441" stroke-width=".947" stroke-linecap="round"/><path d="M204.733 321.789c-.034-4.085-2.485-9.027-2.485-9.027l2.485 9.027Z" fill="#E56441"/><path d="M204.733 321.789c-.034-4.085-2.485-9.027-2.485-9.027" stroke="#E56441" stroke-width=".947" stroke-linecap="round"/><path d="m152.889 379.998 38.47-51.231a1.572 1.572 0 0 1 2.077-.323l10.074 6.662a2.332 2.332 0 0 1 .742 3.04l-30.937 57.053-20.426-15.201Z" fill="#5661AE"/><path d="M162.235 401.637c7.116 0 12.884-5.768 12.884-12.883 0-7.115-5.768-12.883-12.884-12.883-7.114 0-12.882 5.768-12.882 12.883 0 7.115 5.768 12.883 12.882 12.883Zm-57.127-78.892s21.589 5.713 25.295 7.195c3.706 1.483 3.953 7.412 4.2 11.612.247 4.2-.583 98.526-.583 98.526l-47.778-1.837-35.73-20.915s1.553-74.845 2.047-78.303c.495-3.459-3.388-6.438.82-8.179l27.054-7.147 24.675-.952Z" fill="#5661AE"/><path d="m69.155 356.347.385 69.692L49 403.146l9.938-48.968 10.217 2.169Zm7.755-31.584s-3.057 6.146 0 10.386c3.055 4.24 15.29 8.359 23.65 8.238 8.358-.121 12.787-8.091 8.998-19.249l-13.844-3.889-15.281 3.448-3.524 1.066Z" fill="#465393"/><path d="M111.512 271.79s6.019 12.989-.4 15.672c-6.42 2.683-5.673-15.042.4-15.672Z" fill="#93523E"/><path d="m104.723 313.353 1.742 19.637s1.669 2.632-4.833 4.015c-4.182.889-15.445-3.549-17.63-4.88a4.523 4.523 0 0 1-2.2-5.327c.664-2.403 3.417-22.421 3.417-22.421l19.504 8.976Z" fill="#FFCCB3"/><path d="m105.058 317.139-10.374-5.125 11.565 18.554-1.191-13.429Z" fill="#FF967C"/><path d="M108.055 275.549s6.088 15.269 8.297 25.98c2.228 10.807-1.327 13.506-6.018 15.095-3.7 1.254-9.608 2.253-13.626.995-7.329-2.295-14.499-8.916-16.213-10.277-2.655-2.105-5.276-11.658-1.385-17.061 3.891-5.405 19.223-22.387 28.945-14.732Z" fill="#FFCCB3"/><path d="M100.218 296.624c.81-.319 1.072-1.579.585-2.815-.486-1.236-1.536-1.979-2.346-1.661-.81.319-1.072 1.579-.586 2.815.486 1.236 1.537 1.979 2.347 1.661Zm11.127-4.46c.809-.318 1.071-1.578.585-2.814s-1.536-1.979-2.346-1.661c-.81.319-1.072 1.579-.586 2.815.486 1.235 1.537 1.979 2.347 1.66Z" fill="#080B09"/><path d="M107.264 294.273s-.988 2.992 1.09 2.701c1.976-.347 3.316.629 1.59 2.634" fill="#E56441"/><path d="M107.264 294.273s-.988 2.992 1.09 2.701c1.976-.347 3.316.629 1.59 2.634" stroke="#E56441" stroke-width=".947" stroke-linecap="round"/><path d="m110.041 302.253.01-.001.01-.004a.164.164 0 0 1 .088-.002c.03.006.056.021.078.042a.166.166 0 0 1 .047.165l-.007.025-.002.025c-.127 1.31-.453 2.088-.849 2.525-.382.424-.861.564-1.405.523-.558-.043-1.171-.278-1.765-.601a10.93 10.93 0 0 1-1.553-1.047.215.215 0 0 1-.061-.098.217.217 0 0 1-.004-.121.224.224 0 0 1 .165-.165l.004-.001c1.606-.407 4.03-.978 5.244-1.265Z" fill="#E56441" stroke="#E56441"/><path d="m93.167 291.393.152.213a1.455 1.455 0 0 0 1.981.519l5.616-3.46a1.273 1.273 0 0 0 .537-1.64 1.385 1.385 0 0 0-1.95-.702l-5.768 3.247a1.313 1.313 0 0 0-.67.791 1.321 1.321 0 0 0 .102 1.032Zm19.4-8.873-6.591.61c-.195.02-.383.082-.552.181a1.382 1.382 0 0 0-.653 1.506 1.274 1.274 0 0 0 1.375 1.043l6.586-.349a1.454 1.454 0 0 0 1.334-1.553l.005-.262a1.338 1.338 0 0 0-.503-.908 1.315 1.315 0 0 0-1.001-.268Z" fill="#080B09"/><path d="M100.499 278.595s-3.29 6.26-9.258 8.116c-5.968 1.856-2.707 11.276-2.707 11.276s-4.092-4.072-8.796-1.78-1.133 11.285 5.366 11.4l-1.768 10.119s-3.291-4.098-6.753-6.292c-3.462-2.193-15.897-10.707-10.404-21.92 0 0-4.298-15.745 7.49-23.908 11.788-8.163 21.99-5.082 21.99-5.082s2.81-4.458 9.324-3.548c6.514.911 8.016 12.656 5.859 16.904-2.157 4.249-5.672 6.054-10.343 4.715Z" fill="#93523E"/><path d="M51.388 341.352c8.29-7.561 10.738-2.921 13.134-2.324 0 0 7.986 2.84 6.234 9.698C68.903 355.983 49 403.146 49 403.146l-24.648-7.291 1.814-5.232 4.693-13.546 5.012-14.486.517-1.737 6.087-19.137s4.594 3.69 8.913-.365Z" fill="#5661AE"/><path d="M67.805 354.437c5.222-6.1 4.51-15.278-1.59-20.5-6.1-5.222-15.278-4.51-20.5 1.59-5.222 6.099-4.51 15.278 1.59 20.5 6.1 5.222 15.278 4.51 20.5-1.59ZM46.56 391.562l45.76 44.84a1.572 1.572 0 0 1 .048 2.102l-7.922 9.116a2.328 2.328 0 0 1-3.11.338l-52.518-38.133 17.742-18.263Z" fill="#5661AE"/><path d="M36.656 412.566c7.115 0 12.883-5.767 12.883-12.883 0-7.115-5.768-12.882-12.883-12.882-7.114 0-12.883 5.767-12.883 12.882 0 7.116 5.768 12.883 12.883 12.883Z" fill="#5661AE"/><path d="M111.104 382.924 86.27 451.727H36.337a7.92 7.92 0 0 1 7.921-7.921h36.125l21.444-60.882h9.277Z" fill="#fff"/><path d="M111.103 382.924h66.994l-25.909 68.803h-65.92l24.835-68.803Z" fill="url(#d)"/><path d="M204.65 158.544s11.163-2.351 14.704 3.078c3.541 5.428 7.081 15.627 15.107 14.304 8.025-1.322 14.162-27.995 22.187-27.758 8.026.235 4.485 17.702 13.219 17.938 8.733.236 6.609-9.677 13.69-9.677 7.081 0 4.721 21.243 13.926 21.479 9.206.237 8.262-27.38 22.188-26.908" stroke="#fff" stroke-width="5" stroke-miterlimit="10" stroke-linecap="round"/><path d="M172.065 154.875c5.685-13.964.212-29.389-12.225-34.452-12.437-5.063-27.127 2.153-32.812 16.117-5.685 13.964-.211 29.388 12.225 34.451 12.437 5.063 27.128-2.152 32.812-16.116Z" stroke="#FF967C" stroke-width="16.521" stroke-miterlimit="10" stroke-linecap="round"/><path d="M161.127 168.387c-6.562 4.328-14.603 5.564-21.874 2.604-12.436-5.063-17.91-20.487-12.225-34.451 5.685-13.964 20.375-21.18 32.812-16.117" stroke="#fff" stroke-width="16.521" stroke-miterlimit="10" stroke-linecap="round"/><path d="M213.041 118.805h49.12" stroke="#fff" stroke-width="10" stroke-miterlimit="10" stroke-linecap="round"/><path opacity=".6" d="M210.713 132.354h19.984" stroke="#fff" stroke-width="10" stroke-miterlimit="10" stroke-linecap="round"/><path d="M584.92 455.571c-.141.015-.205.094-.128.157-.064.078-.064.078-.045.22-.3.974-.511 1.973-.633 2.984l12.118 9.74 1.342-1.508s-4.474-5.533-6.148-7.142a278.857 278.857 0 0 1-2.013-2.002c-.563-.584-1.068-1.246-1.554-1.766-.677-.93-2.639-.573-2.658-.715-.077-.062-.281.032-.281.032Z" fill="#233B62"/><path d="m493.29 370.944 11.702 11.34 65.426 63.183 1.196 1.089.517.803.077.063 9.267 14.042 1.036 1.606.345.536 6.269 9.566-5.164 2.569-1.495.736-2.109 1.018-3.33 1.724-.058.078-3.534 1.818-.172-.268-8.053-15.392a23.154 23.154 0 0 0-6.417-7.614l-71.147-54.463-13.522-10.353 19.166-22.081Z" fill="#FFCCB3"/><path d="M580.58 447.945c-3.138-1.457-6.659-2.759-10.098-2.556 2.071 1.816 3.017 5.049 4.391 7.405 2.819 4.851 10.047 13.865 6.353 21.525-2.077 4.304-7.88 6.591-7.963 6.527-.972 4.421-5.784 22.415 3.815 11.985 5.362-5.825 10.68-12.048 13.351-18.224 1.1-2.532-1.22-5.058-2.358-7.196-1.457-3.235-3.63-7.52-3.355-11.102l.057-.078c.16-.247 12.591 10.881 12.802 10.933.428-.691 1.425-2.089 1.425-2.089s-17.825-16.908-18.42-17.13Z" fill="#1C85E8"/><path d="M446.706 506.805c-.112-.089-.213-.076-.201.023-.099.012-.099.012-.187.125a17.113 17.113 0 0 0-2.538 1.693l1.852 15.437 2.013-.14s.673-7.082.597-9.408c-.02-1.012-.028-1.924-.036-2.837.004-.812.108-1.636.124-2.348.168-1.137-1.488-2.257-1.4-2.37-.012-.099-.224-.175-.224-.175Z" fill="#233B62"/><path d="m440.387 382.237.431 16.286 2.586 90.919.092 1.612-.192.937.012.1-3.194 16.518-.384 1.873-.128.624-2.205 11.224-5.491-1.777-1.584-.52-2.221-.748-3.581-1.093-.1.012-3.794-1.168.065-.313 5.006-16.633a23.185 23.185 0 0 0 .736-9.932l-12.769-88.682-2.429-16.859 29.144-2.38Z" fill="#FFCCB3"/><path d="M448.934 498.317c-1.223-3.234-2.829-6.626-5.43-8.887.212 2.749-1.373 5.721-2.041 8.363-1.376 5.44-2.512 16.939-10.509 19.831-4.493 1.626-10.244-.801-10.256-.901-3.785 2.481-19.811 11.975-5.655 11.233 7.906-.415 16.06-1.144 22.29-3.689 2.554-1.043 2.663-4.47 3.345-6.794 1.222-3.331 2.661-7.916 5.362-10.284l.1-.012c.287-.067 1.39 16.581 1.504 16.766.789-.196 2.477-.5 2.477-.5s-.916-24.549-1.187-25.126Z" fill="#1C85E8"/><path d="m422.76 260.042-23.129 97.67-.042 6.934 18.807 115.651 29.945-3.242-8.687-110.453 23.825-57.629-4.817-47.261-35.902-1.67Z" fill="#1F2D49"/><path d="M419.522 381.435c11.169 0 20.224-9.054 20.224-20.224 0-11.169-9.055-20.224-20.224-20.224-11.17 0-20.224 9.055-20.224 20.224 0 11.17 9.054 20.224 20.224 20.224Z" fill="#1F2D49"/><path d="m447.245 348.241-5.704-48.256-1.887 66.618 7.591-18.362Z" fill="#0D1B33"/><path d="M485.193 259.737s10.782 18.117 10.922 33.288c.217 22.77-7.995 63.599-7.995 63.599l71.702 72.474-17.07 25.595s-61.183-50.766-87.071-74.879l-5.798-11.74-8.342-68.09 12.75-40.247h30.902Z" fill="#1F2D49"/><path d="m422.759 260.042 62.804.646 6.103 12.63-69.968-8.793 1.061-4.483Z" fill="#0D1B33"/><path d="M469.926 385.683c11.17 0 20.226-9.054 20.226-20.224 0-11.169-9.056-20.224-20.226-20.224-11.169 0-20.224 9.055-20.224 20.224 0 11.17 9.055 20.224 20.224 20.224Zm-54.498-259.855s.843 9.388-1.634 18.412c-2.477 9.025-21.233 28.134-4.6 43.706 16.633 15.571 36.981-26.188 36.981-26.188l-6.37-19.287-22.028-22.918-2.349 6.275Zm50.746 2.192s4.992 6.341 16.366 11.524c11.159 5.087 23.174 13.448 20.701 31.673-2.48 18.225-35.47 4.07-45.162-6.37-9.692-10.44-8.359-29.079-8.359-29.079l16.454-7.748Z" fill="#1F2D49"/><path d="M440.66 162.169s-12.661 5.01-14.594 6.556c-1.932 1.547-3.768 14.167-7.054 20.159-3.286 5.992-8.093 17.052-1.072 27.212 7.021 10.158 6.275 18.225 6.275 18.225l-1.494 25.484 60.509 1.116a3.774 3.774 0 0 0 1.56-.283c.492-.204.933-.51 1.303-.898.365-.387.64-.849.819-1.352a3.854 3.854 0 0 0 .191-1.57c-.671-7.43-3.745-17.864-3.988-29.696-.326-16.034-.569-69.61-.569-69.61l-26.362-.827c-5.31.915-15.524 5.484-15.524 5.484Z" fill="#FEBB94"/><path d="M472.17 179.413s-8.819 8.041-9.338 14.006c-.518 5.966-1.718 22.599-13.051 24.258-13.891 2.033-17.527 4.013-11.088 5.57 6.439 1.556 21.055-.965 21.055 5.706 0 4.748 5.678 8.299 8.531 5.706 2.853-2.594 25.58-42.018 3.891-55.246Z" fill="#FF967C"/><path d="m365.814 186.152-4.781-6.119a10.893 10.893 0 0 0-3.88-3.413c-2.353-1.178-5.959-3.375-7.212-5.571-2.078-3.491-10.263-12.92-3.163-20.249 2.629-2.704 1.972-2.065 7.226-1.983 5.254.08 6.061 5.532 8.686 9.101 0 0 .59-4.116 3.492-5.997 2.903-1.881.977 9.607 3.21 13.961 2.232 4.353.428 5.999 5.718 13.648l-9.296 6.622Z" fill="#FFCCB3"/><path d="m353.204 149.445 4.27 9.687-4.27-9.687Z" fill="#E56441"/><path d="m353.204 149.445 4.27 9.687" stroke="#E56441" stroke-width=".947" stroke-linecap="round"/><path d="m347.636 151.167 5.916 10.315-5.916-10.315Z" fill="#E56441"/><path d="m347.636 151.167 5.916 10.315" stroke="#E56441" stroke-width=".947" stroke-linecap="round"/><path d="m344.143 157.949 4.663 6.158-4.663-6.158Z" fill="#E56441"/><path d="m344.143 157.949 4.663 6.158" stroke="#E56441" stroke-width=".947" stroke-linecap="round"/><path d="M361.592 160.114s-1.807 5.175-1.494 9.253l1.494-9.253Z" fill="#E56441"/><path d="M361.592 160.114s-1.807 5.175-1.494 9.253" stroke="#E56441" stroke-width=".947" stroke-linecap="round"/><path d="M429.143 167.058c-4.908 1.701-11.75 5.152-13.602 9.002l-16.36 37.268-27.245-41.398-10.317 10.867 25.444 52.625c4.65 11.573 16.46 15.921 25.016 3.449l13.669-21.47 3.395-50.343Z" fill="#FEBB94"/><path d="M422.165 199.14s-1.475-2.545-1.475 10.737l-8.612 28.993 13.669-21.47c10.966-14.743 2.303-18.68-3.582-18.26Z" fill="#FF967C"/><path d="m452.158 181.556-45.19 18a2.735 2.735 0 0 0-1.53 3.554l22.618 56.785a2.737 2.737 0 0 0 3.555 1.53l45.191-18.001a2.736 2.736 0 0 0 1.529-3.555l-22.618-56.784a2.736 2.736 0 0 0-3.555-1.529Z" fill="#1C85E8"/><path d="m413.863 204.897 18.635-7.423m-15.821 14.095 8.494-3.384" stroke="#fff" stroke-width="4" stroke-miterlimit="10" stroke-linecap="round"/><path d="m439.058 148.82.711 19.921s-.974 4.362 3.503 3.878c4.476-.484 10.504-4.009 13.892-7.881s3.156-4.182 1.704-6.723c-1.452-2.541-8.269-21.907-8.269-21.907l-11.541 12.712Z" fill="#FFCCB3"/><path d="m439.16 150.491 8.255-5.257s-3.658 16.053-7.645 23.507l-.61-18.25Z" fill="#FCBA9F"/><path d="M416.902 119.009s-.131 19.825 8.422 29.802c5.578 6.506 11.446 5.644 21.234-5.068 8.975-9.821 10.233-14.94 10.233-14.94l-6.197-19.449s-32.684-8.387-33.692 9.655Z" fill="#FFCCB3"/><path d="M425.413 114.41s3.583 8.7 10.237 11.132c6.653 2.431 8.394 6.952 8.394 6.952s1.276-7.439 6.506-7.168c5.229.27 4.166 9.502.921 12.567 0 0 3.904 7.242 7.215 12.598l14.499-14.391s-7.47-8.636-9.113-15.585c-1.642-6.949-6.959-25.553-27.226-24.32-23.795 1.446-22.429 20.782-21.418 31.522 0 0 7.463-2.861 9.985-13.307Z" fill="#1F2D49"/><path d="m427.989 142.681 5.784-2.838.015.104c.04.304.057.721-.026 1.18-.162.896-.714 1.985-2.358 2.692-1.055.341-1.955.004-2.615-.445a4.668 4.668 0 0 1-.776-.668l-.024-.025Z" fill="#E56441" stroke="#E56441"/><path d="M421.689 134.63c.731-.181 1.108-1.2.842-2.278-.266-1.077-1.074-1.805-1.806-1.624-.731.181-1.108 1.201-.842 2.278.267 1.077 1.074 1.804 1.806 1.624Zm10.838-2.513c.732-.18 1.109-1.2.842-2.277-.266-1.077-1.074-1.805-1.805-1.624-.731.181-1.108 1.2-.842 2.277.266 1.078 1.074 1.805 1.805 1.624Zm-15.045-3.297 5.516-1.266a.402.402 0 0 0 .272-.45 1.292 1.292 0 0 0-1.204-.829 1.28 1.28 0 0 0-.504.104l-4.325 1.833c-.361.089-.205.719.245.608Zm18.523-4.937-7.184 2.251a1.64 1.64 0 0 1 1.423-1.975l5.74-.749c.18-.044.291.406.021.473Z" fill="#080B09"/><path d="m425.556 131.027-.779 5.817 2.055.992" fill="#E56441"/><path d="m425.556 131.027-.779 5.817 2.055.992" stroke="#E56441" stroke-width=".947" stroke-linecap="round"/><path d="m431.026 233.014-17.818 5.112-2.178 10.98 4.054 12.151s2.85-1.917 2.256-6.39c-.595-4.473 14.462-4.345 17.221-9.968" fill="#FFCCB3"/><path d="M471.726 172.499s-.117-15.092 11.971-15.094c8.111-.001 11.99 3.801 13.025 15.665.723 8.295 1.247 53.809 1.247 53.809s2.038 20.772-15.582 21.16l-50.876-1.524-1.149-14.215 44.351-4.42-2.987-55.381Z" fill="#FEBB94"/><path d="M434.935 170.612s4.588-1.306 3.844-5.812c-.725-4.435-.753-8.285.702-7.749 0 0 1.284 2.202 9.269-.246 7.932-2.355 7.435-5.077 7.435-5.077s1.122-.994 1.96 1.558c.838 2.553 2.963 9.622 7.455 9.113l1.214 13.175-23.892 7.865c-.052.091-11.095-10.606-7.987-12.827Z" fill="#FEBB94"/><path d="M240.064 433.533h15.032" stroke="#fff" stroke-width="5" stroke-miterlimit="10" stroke-linecap="round"/><path opacity=".5" d="M243.125 440.057h7.517" stroke="#fff" stroke-width="5" stroke-miterlimit="10" stroke-linecap="round"/><path d="m230.052 420.509 11.534-8.044 8.125 5.411 10.814-7.832" stroke="#fff" stroke-width="6.504" stroke-linecap="round" stroke-linejoin="round"/><path d="M252.211 406.631h11.503v11.383" stroke="#fff" stroke-width="6.504" stroke-linecap="round" stroke-linejoin="round"/><path d="M388.414 53.199h-44.582a3.495 3.495 0 0 1-3.554-2.759 3.493 3.493 0 0 1 .033-1.613l6.852-35.228a5.568 5.568 0 0 1 5.221-4.372h44.582a3.5 3.5 0 0 1 3.554 2.758 3.493 3.493 0 0 1-.033 1.614l-6.852 35.227a5.568 5.568 0 0 1-5.221 4.373Z" fill="#1C85E8"/><path d="m357.833 18.754 29.685.006a1.381 1.381 0 0 1 1.404 1.693l-.406 2.223a2.133 2.133 0 0 1-1.18 1.493l-16.263 7.827a1.72 1.72 0 0 1-1.631-.01l-13.379-8.064a1.399 1.399 0 0 1-.546-.644 1.393 1.393 0 0 1-.071-.84l.364-1.99a2.134 2.134 0 0 1 2.023-1.694Z" fill="#fff"/><path d="m356.36 26.846 12.799 8.029a1.163 1.163 0 0 0 1.139 0l15.735-8.023c.846-.431 1.698.116 1.539.988l-2.339 12.79a3.84 3.84 0 0 1-3.635 3.041l-26.954-.005a2.48 2.48 0 0 1-2.523-3.043l2.339-12.79a1.343 1.343 0 0 1 .707-.96 1.354 1.354 0 0 1 1.193-.027Z" fill="#fff"/><path d="M398.506 18.454a9.227 9.227 0 1 0 0-18.454 9.227 9.227 0 1 0 0 18.454Zm.645 194.861 7.651 11.366-4.08-19.419-3.571 8.053Z" fill="#FF967C"/><defs><linearGradient id="a" x1="267.685" y1="110.52" x2="279.357" y2="308.675" gradientUnits="userSpaceOnUse"><stop stop-color="#fff"/><stop offset="1" stop-color="#94B9FF"/></linearGradient><linearGradient id="b" x1="237.808" y1="169.046" x2="286.657" y2="511.456" gradientUnits="userSpaceOnUse"><stop stop-color="#fff"/><stop offset="1" stop-color="#94B9FF"/></linearGradient><linearGradient id="c" x1="364.246" y1="169.046" x2="413.094" y2="511.456" gradientUnits="userSpaceOnUse"><stop stop-color="#fff"/><stop offset="1" stop-color="#94B9FF"/></linearGradient><linearGradient id="d" x1="129.897" y1="382.76" x2="141.808" y2="529.385" gradientUnits="userSpaceOnUse"><stop stop-color="#fff"/><stop offset="1" stop-color="#94B9FF"/></linearGradient></defs></svg>