<svg width="565" height="403" fill="none" xmlns="http://www.w3.org/2000/svg"><path d="M51.621 4.254H69.96" stroke="#fff" stroke-width="7.433" stroke-miterlimit="10" stroke-linecap="round"/><path d="M458.589 4h-57.201a6.98 6.98 0 0 0-6.98 6.98v61.928a6.98 6.98 0 0 0 6.98 6.98h57.201a6.98 6.98 0 0 0 6.98-6.98V10.98a6.98 6.98 0 0 0-6.98-6.98Z" fill="#1C85E8"/><path d="M403.076 61.042h18.337" stroke="#fff" stroke-width="7.433" stroke-miterlimit="10" stroke-linecap="round"/><path opacity=".4" d="M403.076 69.6h37.895" stroke="#fff" stroke-width="7.433" stroke-miterlimit="10" stroke-linecap="round"/><path d="M403.481 25.515h9.484a3.985 3.985 0 0 1 3.445 1.977l9.18 15.7a3.999 3.999 0 0 0 3.552 1.975 3.992 3.992 0 0 0 3.441-2.162l5.676-11.023a4 4 0 0 1 1.449-1.57 4.002 4.002 0 0 1 2.054-.594l16.658-.178" stroke="#fff" stroke-width="4" stroke-miterlimit="10" stroke-linecap="round"/><path opacity=".4" d="M403.481 42.404h4.664a3.987 3.987 0 0 0 2.812-1.16l21.559-21.41a3.989 3.989 0 0 1 2.812-1.159h6.311c.903 0 1.778.305 2.485.866a3.971 3.971 0 0 1 1.403 2.223l3.316 14.279a3.99 3.99 0 0 0 3.882 3.089h5.695" stroke="#fff" stroke-width="4" stroke-miterlimit="10" stroke-linecap="round"/><path d="M540.11 381.821s-2.093 21.09-38.433 21.09h-42.609l56.523-43.945 24.519 22.855Z" fill="#5661AE"/><path d="m455.561 137.396 100.057 22.17a7.448 7.448 0 0 1 2.502 1.038c2.766 1.827 7.709 7.166 6.761 21.767-1.268 19.462-24.771 199.45-24.771 199.45l-96.068-83.17 11.519-161.255Z" fill="#5661AE"/><path d="m444.868 136.824 100.786 22.332s8.624 3.141 8.534 22.644c-.09 19.503-24.772 199.449-24.772 199.449l-96.069-83.171 11.521-161.254Z" fill="#1C85E8"/><path d="M446.506 147.105s1.773 25.69 2.553 29.761c1.369 7.131 32.699-7.85 30.399-14.2-1.19-3.294-6.615-34.685-6.615-34.685l-26.337 19.124Z" fill="#BC775C"/><path d="m449.242 175.879-2.681-26.301h15.878l-13.197 26.301Z" fill="#93523E" stroke="#93523E"/><path d="M486.331 122.474c1.212-12.934-13.46-10.145-15.968-9.562-2.509.584-6.436-18.584-6.436-18.584s-28.947-5.154-35.149-.011c0 0-3.89 24.158-4.517 39.629-.628 15.472 3.712 22.401 9.384 22.931 7.727 1.384 16.867-.175 22.707-3.618 10.403-6.133 14.847-17.225 14.847-17.225.185-.086.286-.13.286-.13s13.707-1.214 14.846-13.43Z" fill="#BC775C"/><path d="M427.956 133.458c2.494-1.581 8.802-1.443 11.363-.942 4.88.956 6.378 1.59 6.928 2.724.55 1.133.657 2.386-1.38 1.584-2.042-.802-6.308-2.266-10.105-2.163-1.765.182-3.513.5-5.228.954-1.979.594-3.828-.732-1.578-2.157Zm-1.766-15.787s1.646-14.474 1.854-18.481c.302-5.764 4.515-3.91 7.532.134 4.341 6.003 12.623 5.623 19.586 3.74 6.11-1.49 6.2-1.139 6.755 5.314.561 6.453 2.643 18.436 4.601 15.568 2.435-3.754 4.096-7.268 8.377-9.553 5.818-3.104 11.788 2.623 10.385 7.046-1.402 4.424-4.685 9.516-12.012 13.699l3.585 16.613c18.162-25.193 25.002-59.792.37-67.803-9.201-2.993-18.756-22.39-36.565-17.977-12.614 3.126-12.614 13.239-13.51 22.032-16.949.733-.958 29.668-.958 29.668Z" fill="#493212"/><path d="M447.97 122.436c.348-1.834-.348-3.504-1.549-3.732-1.201-.228-2.457 1.075-2.8 2.909-.348 1.834.343 3.504 1.543 3.732 1.201.227 2.458-1.075 2.806-2.909Zm-16.535-3.239c.348-1.833-.345-3.504-1.547-3.731-1.201-.227-2.457 1.075-2.803 2.908-.348 1.835.345 3.505 1.547 3.733 1.201.227 2.457-1.075 2.803-2.91Z" fill="#080B09"/><path d="M434.818 123.946s2.151 3.872-.796 4.015c-2.818.04-4.413 1.739-1.504 4.054" stroke="#93523E" stroke-width="1.515" stroke-linecap="round"/><path d="M433.099 135.245c1.75.076 5.25.229 7.581.37a.74.74 0 0 1 .387.13.792.792 0 0 1 .27.315.791.791 0 0 1-.09.79c-2.022 2.356-6.716 6.642-8.843-.627a.69.69 0 0 1 .695-.978Z" fill="#fff"/><path d="m453.524 116.27-.152.334a2.062 2.062 0 0 1-1.043 1.154 2.052 2.052 0 0 1-1.555.083l-8.663-3.304a1.773 1.773 0 0 1-.998-.833 1.777 1.777 0 0 1-.174-1.289c.05-.271.162-.527.32-.752.162-.225.364-.413.6-.553a1.943 1.943 0 0 1 1.588-.176l8.814 2.969c.241.068.466.185.662.342.197.157.354.352.472.573a1.854 1.854 0 0 1 .129 1.452Zm-29.112-7.16 9.26-.886a1.95 1.95 0 0 1 1.505.532 1.95 1.95 0 0 1 .6 1.481 1.79 1.79 0 0 1-1.623 1.8l-9.186 1.247a2.041 2.041 0 0 1-2.25-1.795l-.074-.36a1.87 1.87 0 0 1 1.047-1.835c.226-.109.47-.172.721-.184Z" fill="#080B09"/><path d="M24.889 381.821s2.092 21.09 38.436 21.09h42.606l-56.522-43.945-24.52 22.855Z" fill="#5661AE"/><path d="M109.441 137.396 9.383 159.566a7.469 7.469 0 0 0-2.502 1.038C4.113 162.431-.83 167.77.119 182.371c1.266 19.462 24.77 199.45 24.77 199.45l96.071-83.17-11.519-161.255Z" fill="#5661AE"/><path d="m120.137 136.824-100.79 22.332s-8.622 3.141-8.532 22.644c.09 19.503 24.77 199.449 24.77 199.449l96.071-83.171-11.519-161.254Z" fill="#FEBB94"/><path d="m163.758 229.671 9.78 13.687a16.972 16.972 0 0 0 5.266 4.798 16.98 16.98 0 0 0 6.771 2.218l64.014 6.755.973 16.032-78.113 4.743a26.936 26.936 0 0 1-23.007-10.494l-20.935-27.293 35.251-10.446Z" fill="#FFCCB3"/><path d="M169.874 238.231s-20.124 5.314-26.008 21.911l-10.027-14.821 33.873-10.116 2.162 3.026Z" fill="#FF967C"/><path d="M120.765 178.043s19.581 5.707 25.033 12.298c4.242 5.128 11.454 26.434 17.106 36.696 1.366 2.48 3.304 2.704 1.864 5.142-5.956 10.082-11.06 24.778-20.902 27.963-32.94-4.976-23.101-82.099-23.101-82.099Z" fill="#5661AE"/><path d="M141.927 207.239s13.068 23.7 15.052 36.437c0 0-4.653 11.808-7.937 14.21-5.125 3.748-7.938 1.642-7.938 1.642l.823-52.289Z" fill="#465393"/><path d="M73.624 130.17c18.061 0 32.703-14.642 32.703-32.703 0-18.062-14.642-32.704-32.703-32.704-18.062 0-32.703 14.642-32.703 32.704 0 18.061 14.641 32.703 32.703 32.703Z" fill="#080B09"/><path d="M101.332 80.031S59.125 72.58 54.174 123.76c0 0 4.228 4.547 10.314 5.044 0 0 4.943-49.66 39.315-45.822l-2.471-2.95Z" fill="#FEBB94"/><path d="M92.386 81.982s-4.854-2.52-1.196-5.424a19.751 19.751 0 0 0 5.378-7.1 5.219 5.219 0 0 1 2.197 6.777c-1.874 4.626-3.047 4.886-3.047 4.886l-3.332.86Z" fill="#FEBB94"/><path d="M92.139 79.198s-1.337 5.302-5.004 2.41a19.763 19.763 0 0 0-8.146-3.604 5.218 5.218 0 0 1 6.09-3.695c4.934.761 5.456 1.844 5.456 1.844l1.604 3.045Z" fill="#FEBB94"/><path d="m101.495 154.95 5.167 19.225s39.445 44.754 6.706 61.03c-5.754 2.86-33.256-19.125-38.42-23.999-5.164-4.874-3.023-33.667-3.023-33.667l11.858-41.125 17.712 18.536Z" fill="#FFCCB3"/><path d="M89.871 215.946s19.27 12.112 38.635.873c0 0-2.984 16.686-14.723 22.057-11.739 5.37-23.912-22.93-23.912-22.93Z" fill="#1C85E8"/><path d="m102.512 158.347-10.36-6.777 15.34 25.798-4.98-19.021Z" fill="#FF967C"/><path d="M128.736 107.643s5.48 28.833-4.313 45.642c-6.387 10.961-15.161 11.27-32.27-1.715-15.689-11.907-18.886-19.025-18.886-19.025l3.835-29.974s45.354-20.93 51.634 5.072Z" fill="#FFCCB3"/><path d="M106.661 174.175s19.396 4.79 22.524 6.995c3.127 2.205 7.141 21.506 12.773 30.443 5.631 8.938 13.324 23.06 3.441 39.392-9.882 16.332-8.991 31.961-8.991 31.961l7.479 40.998H60.585c-3.482.318-5.334-8.505-5.23-12 .34-11.527 1.433-14.964.697-33.241-.997-24.77-10.248-95.042-10.248-95.042l27.462-10.198c-.844 38.661 21.617 30.223 40.517 65.393 15.47-29.717-7.122-64.701-7.122-64.701Z" fill="#5661AE"/><path d="M63.882 203.706s4.077 8.496.858 17.175c-3.62 9.758-7.603 33.535 10.04 35.033 21.623 1.836 12.545 5.757 2.756 8.761-9.79 3.004-5.723 2.76-5.098 13.053.445 7.326-19.25 22.2-17.435 16.522 9.733-30.462-23.343-68.102 8.88-90.544Z" fill="#465393"/><path d="m110.797 145.008 10.379 1.729a7.46 7.46 0 0 1-1.023 1.681c-.805.99-2.048 1.941-3.855 1.896-2.831-.324-4.194-1.74-4.863-3.056a6.24 6.24 0 0 1-.638-2.25Z" fill="#E56441" stroke="#E56441"/><path d="M126.625 132.185c1.163-.056 2.037-1.492 1.953-3.205-.084-1.713-1.094-3.056-2.257-2.999-1.163.057-2.037 1.492-1.953 3.205.084 1.714 1.095 3.057 2.257 2.999Zm-17.163 1.087c1.163-.057 2.037-1.492 1.953-3.205-.084-1.714-1.095-3.057-2.257-2.999-1.163.056-2.037 1.492-1.953 3.205.083 1.713 1.094 3.056 2.257 2.999Zm20.815-11.554-8.73.571a.614.614 0 0 1-.602-.545 2 2 0 0 1 .214-.767 1.996 1.996 0 0 1 1.201-.995c.257-.076.527-.1.793-.069l7.218.795c.573-.028.622.974-.094 1.01Zm-29.617.902 11.638.148a2.544 2.544 0 0 0-2.984-2.295l-8.832 1.438c-.286.014-.251.73.178.709Z" fill="#080B09"/><path d="m119.299 128.566 3.733 8.268-2.602 2.379" stroke="#E56441" stroke-width="1.667" stroke-linecap="round"/><path d="M118.024 112.118c-6.096.042-8.952-1.372-15.347 1.637-2.018.949-3.928 1.899-5.085 4.227-1.24 4.68-.445 11.182-8.694 11.001 0 0 2.668-8.882-3-10.017-9.626-1.927-8.079 13.648-2.115 17.448 4.052 2.582-2.91 21.208-8.09 28.055-17.715-41.4-11.566-45.569-6.96-56.376 7.826-18.364 14.683-23.954 33.211-26.992 0 0 24.547.663 31.055 22.26 5.563 18.462-2.787 25.54-2.787 25.54s.26-13.738-1.099-15.146c-1.788-1.852-3.238-1.692-11.089-1.637Z" fill="#080B09"/><path d="m415.881 335.584-69.465 12.34 13.673 54.988h44.496s21.15-45.464 11.296-67.328Z" fill="#FFCCB3"/><path d="M371.533 340.401s10.706 3.297 15.125 20.757c4.419 17.461-.403 41.753-.403 41.753h6.884s24.546-28.825 6.487-65.561l-28.093 3.051Z" fill="#FF967C"/><path d="M516.746 318.256s5.353 39.973-2.637 59.027c-6.8 16.204-17.303 25.391-30.057 25.629h-97.797s-.155-52.237-41.403-61.162c0 0 135.755-37.81 171.894-23.494Z" fill="#1F2D49"/><path d="M518.625 330.379 429.89 333.3l.943-6.198 17.293-1.999h70.376l.123 5.276Z" fill="#0D1B33"/><path d="M449.76 173.802c-.763 3.236-.96-8.212-2.503-7.735-7.064 2.189-27.164 8.462-31.439 10.25-5.208 2.179-5.555 10.893-5.903 17.066-.243 4.325 6.194 65.037 6.515 106.168.068 8.787-8.825 19.072-9.877 23.956a19.776 19.776 0 0 0-.467 4.005 3.548 3.548 0 0 0 3.52 3.566l105.962.99s4.697.683 3.563-4.678a104.488 104.488 0 0 1-1.84-17.783c-1.055-42.72-1.257-114.265-1.717-117.652-.696-5.084 4.763-9.461-1.15-12.02l-32.818-13.112s-6.014 4.389-6.884 4.833c-16.485 8.43-24.962 2.146-24.962 2.146Z" fill="#FEBB94"/><path d="M456.589 178.162s-3.748 13.762-2.014 27.055c1.728 13.293-5.101 31.481-6.515 46.076-1.413 14.595 5.51 33.716 4.427 45.968-1.077 12.251 2.851 34.836 2.851 34.836" stroke="#FF967C" stroke-width="3" stroke-miterlimit="10"/><path d="m159.571 325.395 69.465 12.341-13.673 54.987h-44.496s-21.151-45.463-11.296-67.328Z" fill="#FFCCB3"/><path d="M203.921 330.212s-10.705 3.297-15.124 20.758c-4.419 17.46.403 41.754.403 41.754h-6.884s-24.546-28.826-6.487-65.563l28.092 3.051Z" fill="#FF967C"/><path d="M56.651 310.654s-12.31 23.105-10.845 53.574c1.391 28.938 17.222 38.683 42.25 38.683l101.146-10.188s.155-52.237 41.403-61.161c0 0-45.926-33.429-92.38-25.031-22.8 4.123-37.125 9.139-81.574 4.123Z" fill="#1F2D49"/><path d="M54.919 302.93s65.508 6.844 89.652-11.197l-1.079 15.062s-40.825 22.681-87.61 9.917c0 0-7.015-4.926-.963-13.782Z" fill="#1C85E8"/><path d="M254.833 279.806s19.46-4.075 27.519-2.208c8.213 1.697 25.498 6.021 22.402 18.694-2.141 9.048-11.587 5.464-11.587 5.464s2.458 3.613-1.197 5.261c-2.228.926-16.606-6.959-16.606-6.959-9.596 3.086-22.117-3.43-22.117-3.43l1.586-16.822Z" fill="#FFCCB3"/><path d="m282.52 296.931 10.484 4.832m-8.139-13.077c2.627.517 14.45 6.094 14.45 6.094m-12.98-12.345a54.127 54.127 0 0 1 14.944 6.231" stroke="#FF967C" stroke-width="2.893" stroke-linecap="round" stroke-linejoin="round"/><path d="M168.313 216.819H379.52l106.883 175.905H80.987l87.326-175.905Z" fill="url(#a)"/><path d="m340.252 291.821 7.081 42.87 39.326 26.467 65.834-7.113-16.172-19.354-96.069-42.87Z" fill="#96BAFD"/><path d="m302.409 249.262 29.479 54.354 43.896 41.644-35.535-53.439-37.84-42.559Z" fill="#fff"/><path d="m302.41 249.262 29.478 54.354-2.843 2.186-29.037-55.072 2.402-1.468Z" fill="#5CA4E6"/><path d="m331.888 303.616 43.896 41.644v2.667l-46.739-42.125 2.843-2.186Zm43.898 44.311 60.534-11.065v-2.171l-60.534 10.569v2.667Z" fill="#5CA4E6"/><path d="m436.321 334.691-39.436-50.474-56.633 7.604 35.535 53.439 60.534-10.569Z" fill="#E7EFFF"/><path d="m75.436 207.353-9.142 52.564a5.22 5.22 0 0 1-5.757 4.281s-25.761-1.694-34.337-2.408c-2.02-.169-7.509-5.148-5.83-13.349 1.538-11.202 8.743-37.36 13.3-51.885 2.122-7.227 24.814-2.901 24.814-2.901l16.952 13.698Z" fill="#5661AE"/><path d="M54.051 225.342c11.946 0 21.63-9.683 21.63-21.629 0-11.945-9.684-21.63-21.63-21.63-11.945 0-21.63 9.685-21.63 21.63 0 11.946 9.685 21.629 21.63 21.629Z" fill="#5661AE"/><path d="m26.79 264.71.353-4.191 32.07 3.653-.496 3.566-2.728 22.489-31.183-3.364 1.983-22.153Z" fill="#FFCCB3"/><path d="m27.299 260.483 31.915 3.689-.497 3.566c-7.252-.801-23.51-2.166-31.928-3.028l.51-4.227Z" fill="#FF967C"/><path d="M40.275 303.391c8.671 0 15.701-7.03 15.701-15.701 0-8.672-7.03-15.702-15.701-15.702-8.672 0-15.702 7.03-15.702 15.702 0 8.671 7.03 15.701 15.702 15.701Z" fill="#FFCCB3"/><path d="m48.026 301.207 88.612-41.598s5.316-18.897-.464-15.76c-5.925 3.207-100.328 28.726-100.328 28.726l12.18 28.632Z" fill="#FFCCB3"/><path d="m187.328 261.695-37.675 6.582c-2.426.424-4.04-1.261-3.603-3.765l11.585-66.407c.437-2.503 2.758-4.877 5.185-5.301l37.674-6.582c2.427-.424 4.04 1.261 3.604 3.765l-11.585 66.408c-.437 2.503-2.758 4.876-5.185 5.3Z" fill="#1C85E8"/><path d="m189.017 261.4-37.674 6.582c-2.427.424-4.04-1.262-3.604-3.765l11.585-66.408c.437-2.503 2.759-4.876 5.185-5.3l37.675-6.583c2.427-.424 4.04 1.262 3.603 3.765l-11.584 66.408c-.438 2.504-2.759 4.876-5.186 5.301Z" fill="#B2CDFF"/><path d="m130.828 245.698 4.374 14.26s18.121-4.346 21.998-6.249c7.559-3.887 15.688-9.129 16.64-11.122 2.917-5.04 3.26-11.277 2.926-15.634a3.946 3.946 0 0 0-1.96-3.161 3.959 3.959 0 0 0-3.718-.137l-15.862 7.917s-2.065-3.49.012-6.263c1.339-1.83-.726-5.319-1.644-6.388-.362-.494-2.293-.509-2.731-.009-.738.943.277 4.219-1.281 6.298-2.653 3.329-.298 4.775-7.128 10.45-5.403 4.451-11.683 9.902-11.626 10.038Z" fill="#FFCCB3"/><path d="M161.505 233.983c4.513-1.521 13.718-6.881 13.718-6.881m-14.313 12.899c3.633-1.322 13.224-6.519 13.224-6.519m-11.033 11.883c2.394-.816 9.515-4.204 9.515-4.204" stroke="#FF967C" stroke-width="2.099" stroke-linecap="round" stroke-linejoin="round"/><path d="M26.254 258.808a18.01 18.01 0 0 0 .214 9.479s15.429 7.473 31.731 3.72a7.523 7.523 0 0 0 2.336-7.809l-34.28-5.39Z" fill="#5661AE"/><path d="M485.854 202.915s-4.752 26.008-1.801 51.442c1.846 15.915 11.996 32.252 11.867 39.849-.208 12.299-14.268 17.508-14.308 24.629-.028 4.213 11.357 1.592 16.389-.046 11.306-3.682 18.735 1.321 18.735 1.321l-3.013-107.903-27.869-9.292Z" fill="#FF967C"/><path d="M516.062 196.591c-10.431-13.055-15.11-6.803-18.774-6.484 0 0-12.411 2.312-11.434 12.808 1.032 11.105 19.289 85.113 19.289 85.113l38.327-2.881-1.817-10.205-3.743-21.019-3.989-22.474-.354-2.675-4.483-29.566s-7.619 4.355-13.022-2.617Z" fill="#FEBB94"/><path d="M518.638 219.126c10.189-6.256 13.381-19.588 7.125-29.778-6.256-10.19-19.587-13.379-29.776-7.123-10.195 6.255-13.382 19.588-7.126 29.777 6.256 10.19 19.588 13.379 29.777 7.124Z" fill="#FEBB94"/><path d="m426.904 291.1-24.165 1.798-5.712 13.472 1.952 16.631s4.158-1.694 4.589-7.577c.43-5.883 19.667-1.71 24.696-8.171" fill="#BC775C"/><path d="m519.081 269.307-93.753 17.673a2.335 2.335 0 0 0-1.799 2.562l2.269 17.84a3.473 3.473 0 0 0 3.572 2.992l96.573-3.778-6.862-37.289Z" fill="#FEBB94"/><path d="M524.623 306.74c10.593 0 19.183-8.589 19.183-19.184s-8.59-19.183-19.183-19.183-19.184 8.588-19.184 19.183 8.591 19.184 19.184 19.184Zm-97.009-106.41c3.131-15.454-4.231-15.056-6.68-17.513 0 0-9.191-7.579-16.194-.514-7.413 7.473-49.905 65.524-49.905 65.524l26.587 24.452 4.998-5.963 12.945-15.44 13.847-16.501 1.72-1.879 18.678-21.157s-7.766-2.874-5.996-11.009Z" fill="#FEBB94"/><path d="M438.734 202.963c3.586-10.7-2.185-22.28-12.885-25.864-10.701-3.584-22.281 2.185-25.865 12.885-3.583 10.7 2.186 22.28 12.886 25.865 10.7 3.584 22.28-2.185 25.864-12.886Z" fill="#FEBB94"/><path d="M413.211 234.374c-.794-8.589-3.643-21.455-3.643-21.455s-2.46-.228-10.05 16.733c-5.621 12.71-12.142 25.664-13.221 36.623l12.945-15.44 13.969-16.461Z" fill="#FF967C"/><path d="M361.293 172.579c-1.384-13.068 2.172-13.702 2.221-20.787.024-6.924 10.48-19.743 5.493-19.483-4.986.258-8.488 5.024-8.488 5.024-.739-6.212.51-16.548-5.846-20.448-6.357-3.9-7.853-2.012-13.029-.462-13.817 4.244-6.104 22.528-5.963 28.322.125 3.647 6.539 17.288 6.83 19.804l2.042 9.701 16.74-1.671Z" fill="#BC775C"/><path d="m353.417 135.138-1.89-18.759 1.89 18.759Z" fill="#93523E"/><path d="m353.417 135.138-1.89-18.759" stroke="#93523E" stroke-width="1.515" stroke-linecap="round"/><path d="m346.955 135.346-3.074-18.02 3.074 18.02Z" fill="#93523E"/><path d="m346.955 135.346-3.074-18.02" stroke="#93523E" stroke-width="1.515" stroke-linecap="round"/><path d="m339.362 135.388-1.554-10.785 1.554 10.785Z" fill="#93523E"/><path d="m339.362 135.388-1.554-10.785" stroke="#93523E" stroke-width="1.515" stroke-linecap="round"/><path d="M349.836 149.458c2.258-5.278 8.115-10.357 8.115-10.357l-8.115 10.357Z" fill="#93523E"/><path d="M349.836 149.458c2.258-5.278 8.115-10.357 8.115-10.357" stroke="#93523E" stroke-width="1.515" stroke-linecap="round"/><path d="M385.502 253.037 364.8 174.246a2.206 2.206 0 0 0-2.519-1.546l-16.672 3.177a3.274 3.274 0 0 0-2.61 3.539l7.779 82.257 34.724-8.636Z" fill="#FEBB94"/><path d="M344.368 179.291s-2.052-7.866 0-8.73c2.053-.864 14.917-3.322 16.644-1.715 1.726 1.607 3.233 8.306 3.233 8.306l-19.877 2.139Zm24.268 98.136c9.999 0 18.105-8.106 18.105-18.105s-8.106-18.104-18.105-18.104c-10 0-18.106 8.105-18.106 18.104 0 9.999 8.106 18.105 18.106 18.105Z" fill="#FEBB94"/><path d="M73.626 171.645s13.195 25.557 26.671 29.76c0 0 7.573-4.022 6.366-27.23" stroke="#fff" stroke-miterlimit="10"/><path d="M99.823 207.992a4.595 4.595 0 1 0 0-9.19 4.595 4.595 0 0 0 0 9.19Zm-6.185-8.691a1.588 1.588 0 1 0 0-3.176 1.588 1.588 0 0 0 0 3.176Zm10.781-.983a1.589 1.589 0 1 0 0-3.178 1.589 1.589 0 0 0 0 3.178Z" fill="#5661AE"/><path d="m232.047 277.109-51.792.292v49.76l77.085-4.492-25.293-45.56Z" fill="#fff"/><path d="m227.144 281.957 8.564 17.593" stroke="#1C85E8" stroke-width="3.816" stroke-miterlimit="10" stroke-linecap="round"/><path opacity=".4" d="m218.798 281.958 3.209 6.593" stroke="#1C85E8" stroke-width="3.816" stroke-miterlimit="10" stroke-linecap="round"/><path opacity=".4" d="m183.748 281.959 25.616-.596 1.882 6.266-26.986.922-.512-6.592Zm.72 10.194 15.039-.405 1.882 6.265-16.409.733-.512-6.593Zm0 11.1 25.615-.595 1.883 6.266-26.986.922-.512-6.593Zm.718 10.195 15.039-.405 1.882 6.265-16.409.733-.512-6.593Z" fill="#1C85E8"/><path d="m141.104 361.158 57.112-35.763 40.491 11.516-48.802 42.895-48.801-18.648Z" fill="#1C85E8"/><path d="M456.458 176.115s19.133-6.415 22.729-14.893c0 0 8.736 1.256 12.164 4.54 3.412 3.285 11.738 4.262 4.523 7.913-7.216 3.652-35.354 6.745-37.065 6.267-1.711-.477-2.351-3.827-2.351-3.827Z" fill="#fff"/><path d="M448.53 164.44v4.291s1.712 6.164 7.929 7.384c0 0 .97 3.402-2.452 3.806-3.417.404-13.36-4.622-14.822-5.114-1.47-.485-2.116-2.513.733-4.136 0 0 1.021-5.562 8.612-6.231Zm17.427 60.151a.284.284 0 0 1-.079-.007.369.369 0 0 1-.28-.441c1.043-4.555-1.874-10.183-4.691-15.627-2.093-4.041-4.259-8.222-4.808-11.991-1.296-8.75 2.244-18.581 2.283-18.676a.365.365 0 0 1 .191-.206.37.37 0 0 1 .281-.015.425.425 0 0 1 .123.074.42.42 0 0 1 .084.115.301.301 0 0 1 .034.14.407.407 0 0 1-.023.142c-.033.095-3.518 9.756-2.255 18.323.544 3.645 2.676 7.766 4.747 11.756 2.872 5.561 5.857 11.314 4.752 16.134a.342.342 0 0 1-.129.203.376.376 0 0 1-.23.076Z" fill="#fff"/><path d="M452.374 220.418a.366.366 0 0 1-.23-.076.362.362 0 0 1-.124-.203c-2.3-9.647.163-26.185.971-31.027.673-3.66.909-7.386.707-11.102a.355.355 0 0 1 .084-.266.363.363 0 0 1 .645.193 47.648 47.648 0 0 1-.712 11.292c-.808 4.813-3.255 21.226-.982 30.741a.33.33 0 0 1 0 .165.331.331 0 0 1-.197.248.411.411 0 0 1-.162.035Z" fill="#fff"/><path opacity=".6" d="M465.571 227.227a2.315 2.315 0 0 0 2.317-2.313 2.315 2.315 0 0 0-2.317-2.312 2.316 2.316 0 0 0-2.323 2.312 2.316 2.316 0 0 0 2.323 2.313Zm-12.781-4.857a2.316 2.316 0 0 0 2.323-2.312 2.316 2.316 0 0 0-2.323-2.312 2.315 2.315 0 0 0-2.317 2.312 2.315 2.315 0 0 0 2.317 2.312Z" fill="#fff"/><path d="M313.469 21.696h3.366" stroke="#5CA4E6" stroke-miterlimit="10"/><path d="M375.091 4.082H181.157c-5.666 0-10.261 4.595-10.261 10.26V139.32c0 5.667 4.595 10.261 10.261 10.261h193.934c5.666 0 10.26-4.594 10.26-10.261V14.343c0-5.666-4.594-10.26-10.26-10.26Z" fill="url(#b)"/><path d="M368.303 112.733H260.567a3.229 3.229 0 0 0-3.228 3.229v14.569a3.229 3.229 0 0 0 3.228 3.229h107.736a3.229 3.229 0 0 0 3.228-3.229v-14.569a3.229 3.229 0 0 0-3.228-3.229Z" fill="#fff"/><path d="M334.937 121.804v-.837h1.897v7.295h-.929v-6.458h-.968Zm3.454.999c.047-.619.286-1.103.717-1.453.43-.35.988-.525 1.674-.525.458 0 .852.084 1.181.253.337.161.589.383.757.666.175.282.262.602.262.958 0 .417-.121.777-.363 1.08a1.587 1.587 0 0 1-.928.585v.051c.437.107.784.319 1.039.635.256.316.384.73.384 1.242 0 .383-.088.729-.263 1.039a1.808 1.808 0 0 1-.787.716c-.35.175-.771.263-1.261.263-.714 0-1.299-.185-1.756-.555-.457-.377-.713-.909-.767-1.595h.888c.047.404.212.734.494.989.283.256.66.384 1.13.384.471 0 .828-.122 1.07-.363.249-.25.374-.569.374-.959 0-.505-.169-.868-.505-1.09-.336-.222-.844-.333-1.524-.333h-.232v-.767h.242c.619-.007 1.087-.107 1.403-.303.316-.202.474-.511.474-.928 0-.356-.118-.643-.353-.857-.229-.216-.558-.324-.989-.324-.417 0-.753.108-1.009.324-.256.214-.407.504-.454.867h-.898Zm5.852 4.723a50.04 50.04 0 0 0 2.008-1.685 8.281 8.281 0 0 0 1.221-1.383c.336-.485.504-.959.504-1.423 0-.437-.108-.78-.323-1.029-.208-.256-.548-.384-1.019-.384-.457 0-.814.145-1.07.434-.249.283-.383.663-.404 1.141h-.887c.026-.754.255-1.336.685-1.746.431-.41.986-.616 1.666-.616.693 0 1.241.192 1.644.575.411.384.616.912.616 1.585 0 .558-.168 1.103-.505 1.634a7.176 7.176 0 0 1-1.13 1.393 28.87 28.87 0 0 1-1.625 1.392h3.472v.767h-4.853v-.655ZM242.244 19.492h-56.46a3.833 3.833 0 0 0-3.833 3.834v106.6a3.834 3.834 0 0 0 3.833 3.834h56.46a3.834 3.834 0 0 0 3.833-3.834v-106.6a3.833 3.833 0 0 0-3.833-3.834Z" fill="#1C85E8"/><path opacity=".4" d="M214.014 95.38c8.931 0 16.171-7.24 16.171-16.172 0-8.93-7.24-16.171-16.171-16.171s-16.171 7.24-16.171 16.171 7.24 16.171 16.171 16.171Z" fill="#fff"/><path d="M209.012 74.756V85.02a1.64 1.64 0 0 0 2.425 1.44l9.383-5.133a1.635 1.635 0 0 0 .852-1.438 1.64 1.64 0 0 0-.852-1.438l-9.383-5.132a1.644 1.644 0 0 0-1.622.028 1.634 1.634 0 0 0-.803 1.41Z" fill="#fff"/><path d="M260.236 33.217h40.334" stroke="#fff" stroke-width="16.349" stroke-miterlimit="10" stroke-linecap="round"/><path opacity=".4" d="M260.236 52.04h83.353" stroke="#fff" stroke-width="16.349" stroke-miterlimit="10" stroke-linecap="round"/><path d="M260.734 76.99h40.334" stroke="#fff" stroke-width="16.349" stroke-miterlimit="10" stroke-linecap="round"/><path opacity=".4" d="M260.734 95.813h83.353" stroke="#fff" stroke-width="16.349" stroke-miterlimit="10" stroke-linecap="round"/><path d="M275.353 119.651a3.417 3.417 0 0 0-4.636 0l-.874.806-.874-.806a3.415 3.415 0 0 0-4.636 0 3.227 3.227 0 0 0-1.059 2.385 3.222 3.222 0 0 0 1.059 2.386l5.51 5.107 5.51-5.04c.348-.3.627-.671.818-1.089a3.18 3.18 0 0 0 0-2.661 3.182 3.182 0 0 0-.818-1.088Z" fill="#F4608A"/><path d="M281.506 122.803c.047-.619.286-1.103.717-1.453.43-.35.989-.525 1.675-.525.457 0 .851.084 1.18.253.337.161.589.383.757.666.175.282.263.602.263.958 0 .417-.121.777-.364 1.08a1.584 1.584 0 0 1-.928.585v.051c.437.107.784.319 1.039.635.256.316.384.73.384 1.242 0 .383-.088.729-.262 1.039a1.811 1.811 0 0 1-.788.716c-.35.175-.77.263-1.261.263-.713 0-1.298-.185-1.756-.555-.457-.377-.713-.909-.766-1.595h.887c.047.404.212.734.495.989.282.256.659.384 1.13.384.471 0 .828-.122 1.069-.363.25-.25.374-.569.374-.959 0-.505-.168-.868-.505-1.09-.336-.222-.844-.333-1.523-.333h-.232v-.767h.242c.619-.007 1.086-.107 1.403-.303.315-.202.474-.511.474-.928 0-.356-.118-.643-.354-.857-.228-.216-.558-.324-.988-.324-.417 0-.754.108-1.01.324a1.307 1.307 0 0 0-.454.867h-.898Zm7.062 4.188-1.13 2.714h-.615l.737-2.714h1.008Zm5.553-5.227h-3.542v2.3c.155-.215.383-.39.686-.524.303-.142.629-.212.979-.212.558 0 1.013.117 1.362.353.35.229.599.528.747.898.155.363.232.75.232 1.161 0 .484-.091.918-.272 1.301a2.057 2.057 0 0 1-.838.908c-.37.222-.83.333-1.383.333-.706 0-1.278-.181-1.715-.544-.437-.364-.703-.848-.797-1.454h.898c.088.384.272.683.555.899.283.215.639.322 1.07.322.531 0 .931-.158 1.201-.474.269-.323.403-.747.403-1.271 0-.525-.134-.929-.403-1.211-.27-.29-.666-.434-1.191-.434-.357 0-.67.087-.938.262-.263.169-.455.4-.576.697h-.868v-4.118h4.39v.808Zm1.574 5.762a49.333 49.333 0 0 0 2.008-1.685 8.281 8.281 0 0 0 1.221-1.383c.336-.485.504-.959.504-1.423 0-.437-.108-.78-.323-1.029-.208-.256-.548-.384-1.019-.384-.457 0-.814.145-1.07.434-.249.283-.383.663-.404 1.141h-.887c.027-.754.255-1.336.686-1.746.43-.41.985-.616 1.665-.616.693 0 1.241.192 1.645.575.41.384.615.912.615 1.585 0 .558-.168 1.103-.505 1.634a7.176 7.176 0 0 1-1.13 1.393c-.423.397-.965.861-1.624 1.392h3.471v.767h-4.853v-.655Zm10.405-5.843-2.805 6.579h-.929l2.846-6.488h-3.895v-.787h4.783v.696Zm24.719 1.574c0-3.095-3.668-5.604-8.192-5.604s-8.191 2.509-8.191 5.604c0 3.096 3.667 5.605 8.191 5.605.324 0 .641-.017.955-.043a.309.309 0 0 1 .141.02.31.31 0 0 1 .119.08c.581.608 1.857 1.55 4.274 1.7a.332.332 0 0 0 .304-.16.325.325 0 0 0-.004-.343 8.002 8.002 0 0 1-.979-2.042.327.327 0 0 1 .17-.372c1.951-1.024 3.212-2.632 3.212-4.445ZM153.282 4H82.146a9.82 9.82 0 0 0-9.82 9.82v98.105c0 5.423 4.396 9.819 9.82 9.819h71.136c5.422 0 9.819-4.396 9.819-9.819V13.819c0-5.423-4.397-9.819-9.819-9.819Z" fill="#1C85E8"/><path d="m113.092 76.488-3.726 8.74h-1.233l3.78-8.62h-5.175v-1.045h6.354v.925Zm3.122 3.7c-.5-.196-.885-.483-1.153-.858s-.401-.83-.401-1.367c0-.483.12-.916.361-1.3.242-.394.599-.702 1.073-.925.482-.233 1.063-.349 1.742-.349s1.256.116 1.73.349c.482.223.844.531 1.085.925.251.384.376.817.376 1.3 0 .518-.139.974-.416 1.367-.277.385-.657.67-1.139.858.554.17.992.47 1.313.898.331.42.496.93.496 1.528 0 .581-.143 1.09-.429 1.528-.285.43-.692.765-1.22 1.006-.517.232-1.117.348-1.796.348s-1.278-.116-1.796-.348a2.876 2.876 0 0 1-1.193-1.005c-.286-.438-.429-.948-.429-1.529 0-.599.161-1.113.483-1.541.321-.43.759-.724 1.313-.885Zm3.633-2.078c0-.545-.179-.965-.536-1.26-.358-.295-.849-.442-1.475-.442-.616 0-1.103.147-1.461.442-.357.295-.536.72-.536 1.274 0 .5.183.902.55 1.206.375.304.858.456 1.447.456.599 0 1.082-.152 1.448-.456.375-.313.563-.72.563-1.22Zm-2.011 2.614c-.661 0-1.201.156-1.622.47-.42.303-.63.764-.63 1.38 0 .572.201 1.032.603 1.381.412.349.961.523 1.649.523.688 0 1.234-.174 1.636-.523.402-.349.603-.809.603-1.38 0-.6-.206-1.056-.617-1.368-.411-.322-.952-.483-1.622-.483Zm4.798-3.002c0-.608.182-1.09.549-1.448.366-.366.835-.55 1.408-.55.571 0 1.04.184 1.407.55.366.357.55.84.55 1.448 0 .616-.184 1.108-.55 1.474-.367.358-.836.537-1.407.537-.573 0-1.042-.18-1.408-.537-.367-.366-.549-.858-.549-1.474Zm7.828-1.85-5.429 9.356h-1.207l5.429-9.356h1.207Zm-5.871.603c-.304 0-.546.107-.724.321-.17.206-.255.514-.255.926 0 .41.085.723.255.938.178.215.42.322.724.322.303 0 .544-.107.723-.322.179-.224.269-.536.269-.938 0-.412-.09-.72-.269-.926-.179-.214-.42-.321-.723-.321Zm3.176 6.903c0-.616.184-1.103.55-1.46.367-.367.836-.55 1.407-.55.573 0 1.037.183 1.395.55.366.357.55.844.55 1.46 0 .608-.184 1.095-.55 1.461-.358.367-.822.55-1.395.55-.571 0-1.04-.179-1.407-.536-.366-.366-.55-.858-.55-1.475Zm1.944-1.246c-.304 0-.545.107-.724.322-.178.205-.268.514-.268.924 0 .403.09.71.268.925.179.206.42.309.724.309s.545-.103.724-.308c.179-.215.268-.523.268-.926 0-.41-.089-.719-.268-.924-.179-.215-.42-.322-.724-.322Z" fill="#fff"/><path d="M117.714 105.892c15.237 0 27.588-12.352 27.588-27.589 0-15.237-12.351-27.588-27.588-27.588S90.125 63.066 90.125 78.303s12.352 27.589 27.589 27.589Z" stroke="#fff" stroke-width="15" stroke-miterlimit="10" stroke-linecap="round"/><path d="M145.302 78.303a27.582 27.582 0 0 1-8.093 19.485 27.584 27.584 0 0 1-38.991 0 27.59 27.59 0 0 1-8.093-19.485" stroke="#96BAFD" stroke-width="15" stroke-linecap="round" stroke-linejoin="round"/><path d="M117.712 50.715a27.59 27.59 0 0 1 27.589 27.588" stroke="#FEBB94" stroke-width="15" stroke-linecap="round" stroke-linejoin="round"/><path d="M85.468 22.2h18.337" stroke="#fff" stroke-width="7.433" stroke-miterlimit="10" stroke-linecap="round"/><path opacity=".4" d="M85.468 30.758h37.895" stroke="#fff" stroke-width="7.433" stroke-miterlimit="10" stroke-linecap="round"/><path d="M486.403 392.723H80.987v10.188h405.416v-10.188Z" fill="#1C85E8"/><path d="M84.16 135.292a1.683 1.683 0 1 0 0-3.367 1.683 1.683 0 0 0 0 3.367Z" fill="#5661AE"/><defs><linearGradient id="a" x1="234.811" y1="-2.452" x2="276.585" y2="594.516" gradientUnits="userSpaceOnUse"><stop stop-color="#fff"/><stop offset="1" stop-color="#94B9FF"/></linearGradient><linearGradient id="b" x1="253.297" y1="-42.211" x2="286.538" y2="315.01" gradientUnits="userSpaceOnUse"><stop stop-color="#fff"/><stop offset="1" stop-color="#94B9FF"/></linearGradient></defs></svg>