<svg width="3103" height="2757" viewBox="0 0 3103 2757" fill="none" xmlns="http://www.w3.org/2000/svg">
<path d="M2779.4 959.6C2779.8 960 2780 960.5 2780.5 960.9C2901.4 1104.7 2995.6 1269.7 3050.3 1449.3C3150.5 1777.1 3109.5 2152.6 2912.3 2432.8C2846 2527 2761 2611.4 2655 2656.9C2588.3 2685.4 2514.6 2697.1 2442 2692.5C2398.8 2689.7 2356.1 2681.3 2315.1 2667.2C2205.4 2629.5 2110.5 2552.2 2048.5 2454.2C1928.7 2265.9 1936.1 2022.5 1986.8 1805.1C2024.2 1644.7 2082.7 1489.4 2123.8 1330.2C2138.5 1273.5 2150.9 1216.6 2159.5 1158.6C2180.6 1030.6 2174.6 892.6 2135.4 768.7C2095 640.3 2012 564.2 1929.8 464.6C1941.3 464.2 1953 464.3 1964.7 464.7C2130.4 471.6 2300.7 562.7 2433.7 651.6C2562.2 737.5 2679.9 841.4 2779.4 959.6Z" fill="url(#paint0_linear_763_2431)"/>
<path d="M1707.3 349.4C1838.9 495.2 1936.1 675.8 1963.1 870.5C1992.7 1082.9 1938.1 1297.6 1878.5 1503.6C1818.8 1709.7 1752.7 1918.8 1758.3 2133.4C1761.4 2257.2 1792.5 2382.9 1855.9 2490C1886.8 2542.4 1925.6 2590.4 1972.5 2629.4C2000.5 2652.9 2032.5 2687.5 2067.5 2708.1C2081 2716.1 2095.1 2722.2 2109.4 2724.6C1883 2779.3 1638.9 2655 1506.5 2463.6C1373.8 2272.3 1338.1 2028 1354.4 1795.9C1370.9 1563.6 1435 1338.1 1486.3 1110.8C1525.4 937.1 1557.4 757.7 1530.9 581.5C1499.3 371.4 1386.4 181.6 1250.9 17.2C1246.4 11.4 1241.5 5.7 1236.8 0C1410.9 90.9 1575.8 203.6 1707.3 349.4Z" fill="url(#paint1_linear_763_2431)"/>
<path d="M1707.3 349.4C1838.9 495.2 1936.1 675.8 1963.1 870.5C1992.7 1082.9 1938.1 1297.6 1878.5 1503.6C1818.8 1709.7 1752.7 1918.8 1758.3 2133.4C1759.5 2174 1763.5 2214.9 1770.7 2255.2C1785.4 2337.7 1813.4 2418 1855.9 2490C1886.8 2542.4 1925.6 2590.4 1972.5 2629.4C2000.5 2652.9 2032.5 2687.5 2067.5 2708.1C1857.6 2636.9 1683.3 2460 1623.7 2245.3C1559.4 2014.9 1620.2 1776.5 1675.2 1539.4C1675.3 1539 1675.3 1538.4 1675.4 1537.9C1689.9 1475.4 1704.1 1413.2 1715.2 1351.1C1715.9 1346.9 1716.6 1342.9 1717.4 1338.6C1717.5 1338.2 1717.6 1338 1717.5 1337.9C1717.6 1337.7 1717.6 1337.7 1717.6 1337.7C1766.2 1058.1 1754 760.7 1631.8 504.7C1542.6 317.5 1400.6 162.8 1250.9 17.2C1246.4 11.4 1241.5 5.7 1236.8 0C1410.9 90.9 1575.8 203.6 1707.3 349.4Z" fill="url(#paint2_linear_763_2431)"/>
<path opacity="0.6" d="M1675.2 1539.4C1642.9 1744.9 1625.8 2060 1770.7 2255.2C1785.4 2337.7 1813.4 2418 1855.9 2490C1886.8 2542.4 1925.6 2590.4 1972.5 2629.4C2000.5 2652.9 2032.5 2687.5 2067.5 2708.1C1857.6 2636.9 1683.3 2460 1623.7 2245.3C1559.4 2014.9 1620.2 1776.5 1675.2 1539.4Z" fill="url(#paint3_linear_763_2431)"/>
<path d="M1359.4 2543.8C1069.2 1916.1 1255.2 1260.5 1459.5 824.6C1150 738.3 789.7 724.7 439.3 765.9C797.5 1400.6 478.3 1924.7 807.9 2297.8C950.2 2458.9 1150.7 2541.1 1359.4 2543.8Z" fill="#FBD34C"/>
<path d="M1543.6 2525.6C1549.6 2524.3 1555.7 2523.1 1561.8 2521.6L1554.8 2508C1551.1 2513.9 1547.3 2519.8 1543.6 2525.6Z" fill="#FBD34C"/>
<path d="M800.9 2469.9C737 2464.6 621.7 2442.3 479 2358.5C552.5 2334.9 626.7 2336.5 688.8 2346.5C624.2 2256.7 587.4 2159.9 566.2 2056.3C391.5 2101.3 202.1 2173.2 0 2281.6C511.8 2875.4 1073.2 2781.8 1346.7 2683.3C1145.6 2676.7 952.4 2605.2 800.9 2469.9Z" fill="#9FC86A"/>
<defs>
<linearGradient id="paint0_linear_763_2431" x1="4002.3" y1="2428.8" x2="1985" y2="3794.1" gradientUnits="userSpaceOnUse">
<stop stop-color="#A7D411"/>
<stop offset="1" stop-color="#32742E"/>
</linearGradient>
<linearGradient id="paint1_linear_763_2431" x1="1272.1" y1="-47.1" x2="2116.9" y2="-16.9" gradientUnits="userSpaceOnUse">
<stop stop-color="#36BAD8"/>
<stop offset="1" stop-color="#525FE0"/>
</linearGradient>
<linearGradient id="paint2_linear_763_2431" x1="3010.1" y1="2205.8" x2="2186.4" y2="3437" gradientUnits="userSpaceOnUse">
<stop stop-color="#36BAD8"/>
<stop offset="1" stop-color="#525FE0"/>
</linearGradient>
<linearGradient id="paint3_linear_763_2431" x1="1045.1" y1="2196.6" x2="1322.3" y2="1319.1" gradientUnits="userSpaceOnUse">
<stop stop-color="#19249A" stop-opacity="0"/>
<stop offset="1" stop-color="#19249A"/>
</linearGradient>
</defs>
</svg>
