<svg width="775" height="775" viewBox="0 0 775 775" fill="none" xmlns="http://www.w3.org/2000/svg">
<g clip-path="url(#clip0_940_1820)">
<path d="M669.908 1106.39C874.405 1106.39 1039.82 938.876 1039.82 732.694C1039.82 526.512 874.405 359 669.908 359C465.411 359 300 526.512 300 732.694C300 938.876 465.411 1106.39 669.908 1106.39Z" stroke="#0062FF" stroke-opacity="0.05" stroke-width="40"/>
<path d="M669.908 999.714C816.038 999.714 934.224 880.012 934.224 732.694C934.224 585.375 816.038 465.673 669.908 465.673C523.778 465.673 405.592 585.375 405.592 732.694C405.592 880.012 523.778 999.714 669.908 999.714Z" stroke="#0062FF" stroke-opacity="0.05" stroke-width="30"/>
<path d="M669.367 902.776C762.767 902.776 838.367 826.563 838.367 732.694C838.367 638.824 762.767 562.612 669.367 562.612C575.967 562.612 500.367 638.824 500.367 732.694C500.367 826.563 575.967 902.776 669.367 902.776Z" stroke="#0062FF" stroke-opacity="0.05" stroke-width="20"/>
</g>
<defs>
<clipPath id="clip0_940_1820">
<rect width="775" height="775" fill="white"/>
</clipPath>
</defs>
</svg>
