<svg xmlns="http://www.w3.org/2000/svg" width="311" height="788" fill="none"><ellipse cx="-79.092" cy="393.694" fill="#fff" rx="349.908" ry="353.694"/><path stroke="#0062FF" stroke-opacity=".05" stroke-width="40" d="M-79.092 767.388c204.497 0 369.908-167.512 369.908-373.694C290.816 187.512 125.405 20-79.092 20S-449 187.512-449 393.694c0 206.182 165.411 373.694 369.908 373.694Z"/><ellipse cx="-79.092" cy="393.694" fill="#fff" rx="249.316" ry="252.02"/><path stroke="#0062FF" stroke-opacity=".05" stroke-width="30" d="M-79.092 660.714c146.13 0 264.316-119.702 264.316-267.02 0-147.318-118.186-267.021-264.316-267.021-146.13 0-264.316 119.703-264.316 267.021s118.186 267.02 264.316 267.02Z"/><ellipse cx="-79.633" cy="393.694" fill="#fff" rx="159" ry="160.082"/><path stroke="#0062FF" stroke-opacity=".05" stroke-width="20" d="M-79.633 563.776c93.4 0 169-76.213 169-170.082 0-93.87-75.6-170.082-169-170.082s-169 76.212-169 170.082c0 93.869 75.6 170.082 169 170.082Z"/></svg>