<svg width="775" height="775" viewBox="0 0 775 775" fill="none" xmlns="http://www.w3.org/2000/svg">
<g clip-path="url(#clip0_940_1820)">
<path d="M791.908 1179.39C996.405 1179.39 1161.82 1011.88 1161.82 805.694C1161.82 599.512 996.405 432 791.908 432C587.411 432 422 599.512 422 805.694C422 1011.88 587.411 1179.39 791.908 1179.39Z" stroke="#0062FF" stroke-opacity="0.05" stroke-width="40"/>
<path d="M791.908 1072.71C938.038 1072.71 1056.22 953.012 1056.22 805.694C1056.22 658.375 938.038 538.673 791.908 538.673C645.778 538.673 527.592 658.375 527.592 805.694C527.592 953.012 645.778 1072.71 791.908 1072.71Z" stroke="#0062FF" stroke-opacity="0.05" stroke-width="30"/>
<path d="M791.367 975.776C884.767 975.776 960.367 899.563 960.367 805.694C960.367 711.824 884.767 635.612 791.367 635.612C697.967 635.612 622.367 711.824 622.367 805.694C622.367 899.563 697.967 975.776 791.367 975.776Z" stroke="#0062FF" stroke-opacity="0.05" stroke-width="20"/>
</g>
<defs>
<clipPath id="clip0_940_1820">
<rect width="775" height="775" fill="white"/>
</clipPath>
</defs>
</svg>
